<svg width="645" height="244" viewBox="0 0 645 244" fill="none" xmlns="http://www.w3.org/2000/svg">
<path d="M50.864 54.336L70.64 14.4H75.392L55.664 54.336H50.864ZM84.3508 29.952L84.7348 24.432H84.9748L80.0308 27.792L78.2548 24.672L83.6308 22.08L83.5348 22.32L78.1588 19.728L79.9828 16.656L84.9748 20.016L84.7348 19.92L84.3508 14.4H87.9508L87.5188 20.496L87.1348 20.112L92.0788 16.752L93.8548 19.872L88.4308 22.512V21.984L93.8068 24.624L92.0308 27.696L87.0388 24.336L87.5668 24.432L87.9508 29.952H84.3508ZM95.0634 108V74.4H108.743C110.567 74.4 112.215 74.864 113.687 75.792C115.191 76.688 116.391 77.92 117.287 79.488C118.183 81.056 118.631 82.8 118.631 84.72C118.631 86.64 118.183 88.384 117.287 89.952C116.391 91.52 115.191 92.784 113.687 93.744C112.215 94.672 110.567 95.136 108.743 95.136H100.247V108H95.0634ZM100.247 90.144H108.647C109.511 90.144 110.295 89.904 110.999 89.424C111.703 88.912 112.263 88.256 112.679 87.456C113.127 86.624 113.351 85.712 113.351 84.72C113.351 83.728 113.127 82.832 112.679 82.032C112.263 81.232 111.703 80.592 110.999 80.112C110.295 79.632 109.511 79.392 108.647 79.392H100.247V90.144ZM135.097 108.48C132.633 108.48 130.425 107.92 128.473 106.8C126.553 105.648 125.033 104.096 123.913 102.144C122.793 100.16 122.233 97.904 122.233 95.376C122.233 92.848 122.793 90.608 123.913 88.656C125.033 86.672 126.553 85.12 128.473 84C130.425 82.848 132.633 82.272 135.097 82.272C137.529 82.272 139.705 82.848 141.625 84C143.577 85.12 145.113 86.672 146.233 88.656C147.353 90.608 147.913 92.848 147.913 95.376C147.913 97.904 147.353 100.16 146.233 102.144C145.113 104.096 143.577 105.648 141.625 106.8C139.705 107.92 137.529 108.48 135.097 108.48ZM135.097 103.968C136.601 103.968 137.945 103.6 139.129 102.864C140.313 102.096 141.241 101.072 141.913 99.792C142.585 98.48 142.905 97.008 142.873 95.376C142.905 93.712 142.585 92.24 141.913 90.96C141.241 89.648 140.313 88.624 139.129 87.888C137.945 87.152 136.601 86.784 135.097 86.784C133.593 86.784 132.233 87.168 131.017 87.936C129.833 88.672 128.905 89.696 128.233 91.008C127.561 92.288 127.241 93.744 127.273 95.376C127.241 97.008 127.561 98.48 128.233 99.792C128.905 101.072 129.833 102.096 131.017 102.864C132.233 103.6 133.593 103.968 135.097 103.968ZM153.3 108V82.8H158.292V90.72L157.812 88.8C158.164 87.584 158.756 86.48 159.588 85.488C160.452 84.496 161.428 83.712 162.516 83.136C163.636 82.56 164.788 82.272 165.972 82.272C166.516 82.272 167.028 82.32 167.508 82.416C168.02 82.512 168.42 82.624 168.708 82.752L167.412 88.128C167.028 87.968 166.596 87.84 166.116 87.744C165.668 87.616 165.22 87.552 164.772 87.552C163.908 87.552 163.076 87.728 162.276 88.08C161.508 88.4 160.82 88.864 160.212 89.472C159.636 90.048 159.172 90.736 158.82 91.536C158.468 92.304 158.292 93.152 158.292 94.08V108H153.3ZM176.717 108V76.368H181.661V108H176.717ZM171.485 87.6V82.8H187.517V87.6H171.485ZM201.48 108.48C199.4 108.48 197.496 107.904 195.768 106.752C194.072 105.6 192.712 104.032 191.688 102.048C190.664 100.064 190.152 97.824 190.152 95.328C190.152 92.8 190.664 90.56 191.688 88.608C192.744 86.624 194.152 85.072 195.912 83.952C197.704 82.832 199.704 82.272 201.912 82.272C203.224 82.272 204.424 82.464 205.512 82.848C206.6 83.232 207.544 83.776 208.344 84.48C209.176 85.152 209.848 85.936 210.36 86.832C210.904 87.728 211.24 88.688 211.368 89.712L210.264 89.328V82.8H215.256V108H210.264V102L211.416 101.664C211.224 102.528 210.824 103.376 210.216 104.208C209.64 105.008 208.888 105.728 207.96 106.368C207.064 107.008 206.056 107.52 204.936 107.904C203.848 108.288 202.696 108.48 201.48 108.48ZM202.776 103.92C204.28 103.92 205.608 103.552 206.76 102.816C207.912 102.08 208.808 101.072 209.448 99.792C210.12 98.48 210.456 96.992 210.456 95.328C210.456 93.696 210.12 92.24 209.448 90.96C208.808 89.68 207.912 88.672 206.76 87.936C205.608 87.2 204.28 86.832 202.776 86.832C201.304 86.832 199.992 87.2 198.84 87.936C197.72 88.672 196.824 89.68 196.152 90.96C195.512 92.24 195.192 93.696 195.192 95.328C195.192 96.992 195.512 98.48 196.152 99.792C196.824 101.072 197.72 102.08 198.84 102.816C199.992 103.552 201.304 103.92 202.776 103.92ZM224.895 108V79.968C224.895 78.528 225.215 77.248 225.855 76.128C226.495 75.008 227.375 74.128 228.495 73.488C229.615 72.848 230.911 72.528 232.383 72.528C233.407 72.528 234.367 72.72 235.263 73.104C236.159 73.488 236.879 74 237.423 74.64L235.743 78.432C235.327 78.048 234.863 77.744 234.351 77.52C233.871 77.264 233.407 77.136 232.959 77.136C232.287 77.136 231.711 77.248 231.231 77.472C230.783 77.664 230.447 77.984 230.223 78.432C229.999 78.848 229.887 79.36 229.887 79.968V108H227.391C226.975 108 226.559 108 226.143 108C225.727 108 225.311 108 224.895 108ZM220.863 87.792V83.232H235.839V87.792H220.863ZM251.393 108.48C248.929 108.48 246.721 107.92 244.769 106.8C242.849 105.648 241.329 104.096 240.209 102.144C239.089 100.16 238.529 97.904 238.529 95.376C238.529 92.848 239.089 90.608 240.209 88.656C241.329 86.672 242.849 85.12 244.769 84C246.721 82.848 248.929 82.272 251.393 82.272C253.825 82.272 256.001 82.848 257.921 84C259.873 85.12 261.409 86.672 262.529 88.656C263.649 90.608 264.209 92.848 264.209 95.376C264.209 97.904 263.649 100.16 262.529 102.144C261.409 104.096 259.873 105.648 257.921 106.8C256.001 107.92 253.825 108.48 251.393 108.48ZM251.393 103.968C252.897 103.968 254.241 103.6 255.425 102.864C256.609 102.096 257.537 101.072 258.209 99.792C258.881 98.48 259.201 97.008 259.169 95.376C259.201 93.712 258.881 92.24 258.209 90.96C257.537 89.648 256.609 88.624 255.425 87.888C254.241 87.152 252.897 86.784 251.393 86.784C249.889 86.784 248.529 87.168 247.313 87.936C246.129 88.672 245.201 89.696 244.529 91.008C243.857 92.288 243.537 93.744 243.569 95.376C243.537 97.008 243.857 98.48 244.529 99.792C245.201 101.072 246.129 102.096 247.313 102.864C248.529 103.6 249.889 103.968 251.393 103.968ZM269.693 108V72.48H274.637V108H269.693ZM282.46 108V82.8H287.404V108H282.46ZM284.86 77.232C283.804 77.232 282.988 76.96 282.412 76.416C281.836 75.872 281.548 75.104 281.548 74.112C281.548 73.184 281.836 72.432 282.412 71.856C283.02 71.28 283.836 70.992 284.86 70.992C285.916 70.992 286.732 71.264 287.308 71.808C287.884 72.352 288.172 73.12 288.172 74.112C288.172 75.04 287.868 75.792 287.26 76.368C286.684 76.944 285.884 77.232 284.86 77.232ZM306.331 108.48C303.867 108.48 301.659 107.92 299.707 106.8C297.787 105.648 296.267 104.096 295.147 102.144C294.027 100.16 293.467 97.904 293.467 95.376C293.467 92.848 294.027 90.608 295.147 88.656C296.267 86.672 297.787 85.12 299.707 84C301.659 82.848 303.867 82.272 306.331 82.272C308.763 82.272 310.939 82.848 312.859 84C314.811 85.12 316.347 86.672 317.467 88.656C318.587 90.608 319.147 92.848 319.147 95.376C319.147 97.904 318.587 100.16 317.467 102.144C316.347 104.096 314.811 105.648 312.859 106.8C310.939 107.92 308.763 108.48 306.331 108.48ZM306.331 103.968C307.835 103.968 309.179 103.6 310.363 102.864C311.547 102.096 312.475 101.072 313.147 99.792C313.819 98.48 314.139 97.008 314.107 95.376C314.139 93.712 313.819 92.24 313.147 90.96C312.475 89.648 311.547 88.624 310.363 87.888C309.179 87.152 307.835 86.784 306.331 86.784C304.827 86.784 303.467 87.168 302.251 87.936C301.067 88.672 300.139 89.696 299.467 91.008C298.795 92.288 298.475 93.744 298.507 95.376C298.475 97.008 298.795 98.48 299.467 99.792C300.139 101.072 301.067 102.096 302.251 102.864C303.467 103.6 304.827 103.968 306.331 103.968ZM57.632 209.952L58.016 204.432H58.256L53.312 207.792L51.536 204.672L56.912 202.08L56.816 202.32L51.44 199.728L53.264 196.656L58.256 200.016L58.016 199.92L57.632 194.4H61.232L60.8 200.496L60.416 200.112L65.36 196.752L67.136 199.872L61.712 202.512V201.984L67.088 204.624L65.312 207.696L60.32 204.336L60.848 204.432L61.232 209.952H57.632ZM69.4265 234.336L89.2025 194.4H93.9545L74.2265 234.336H69.4265Z" fill="#F5F5F5"/>
<path d="M104.087 168V151.248L104.423 153.6L90.8394 134.4H97.0794L107.447 149.28L106.247 149.136L115.607 134.4H121.559L108.551 154.128L109.271 150.864V168H104.087ZM132.939 179.04C131.147 179.04 129.355 178.752 127.563 178.176C125.803 177.632 124.379 176.912 123.291 176.016L125.115 172.176C125.755 172.656 126.507 173.072 127.371 173.424C128.235 173.808 129.147 174.096 130.107 174.288C131.067 174.512 132.011 174.624 132.939 174.624C134.699 174.624 136.171 174.336 137.355 173.76C138.539 173.184 139.435 172.336 140.043 171.216C140.651 170.096 140.955 168.704 140.955 167.04V162.192L141.483 162.528C141.323 163.52 140.795 164.48 139.899 165.408C139.035 166.304 137.947 167.04 136.635 167.616C135.323 168.192 133.979 168.48 132.603 168.48C130.203 168.48 128.059 167.92 126.171 166.8C124.315 165.648 122.843 164.096 121.755 162.144C120.667 160.16 120.123 157.904 120.123 155.376C120.123 152.848 120.651 150.608 121.707 148.656C122.795 146.672 124.267 145.12 126.123 144C128.011 142.848 130.123 142.272 132.459 142.272C133.419 142.272 134.347 142.4 135.243 142.656C136.139 142.88 136.971 143.216 137.739 143.664C138.507 144.08 139.195 144.544 139.803 145.056C140.411 145.568 140.907 146.112 141.291 146.688C141.675 147.264 141.915 147.808 142.011 148.32L140.955 148.704V142.8H145.899V166.464C145.899 168.48 145.595 170.256 144.987 171.792C144.411 173.36 143.563 174.672 142.443 175.728C141.323 176.816 139.963 177.632 138.363 178.176C136.763 178.752 134.955 179.04 132.939 179.04ZM133.131 163.92C134.699 163.92 136.091 163.552 137.307 162.816C138.523 162.08 139.467 161.072 140.139 159.792C140.811 158.512 141.147 157.04 141.147 155.376C141.147 153.712 140.795 152.24 140.091 150.96C139.419 149.648 138.475 148.624 137.259 147.888C136.075 147.152 134.699 146.784 133.131 146.784C131.595 146.784 130.219 147.168 129.003 147.936C127.819 148.672 126.875 149.696 126.171 151.008C125.499 152.288 125.163 153.744 125.163 155.376C125.163 157.008 125.499 158.48 126.171 159.792C126.875 161.072 127.819 162.08 129.003 162.816C130.219 163.552 131.595 163.92 133.131 163.92ZM164.159 168.48C161.695 168.48 159.487 167.92 157.535 166.8C155.615 165.648 154.095 164.096 152.975 162.144C151.855 160.16 151.295 157.904 151.295 155.376C151.295 152.848 151.855 150.608 152.975 148.656C154.095 146.672 155.615 145.12 157.535 144C159.487 142.848 161.695 142.272 164.159 142.272C166.591 142.272 168.767 142.848 170.687 144C172.639 145.12 174.175 146.672 175.295 148.656C176.415 150.608 176.975 152.848 176.975 155.376C176.975 157.904 176.415 160.16 175.295 162.144C174.175 164.096 172.639 165.648 170.687 166.8C168.767 167.92 166.591 168.48 164.159 168.48ZM164.159 163.968C165.663 163.968 167.007 163.6 168.191 162.864C169.375 162.096 170.303 161.072 170.975 159.792C171.647 158.48 171.967 157.008 171.935 155.376C171.967 153.712 171.647 152.24 170.975 150.96C170.303 149.648 169.375 148.624 168.191 147.888C167.007 147.152 165.663 146.784 164.159 146.784C162.655 146.784 161.295 147.168 160.079 147.936C158.895 148.672 157.967 149.696 157.295 151.008C156.623 152.288 156.303 153.744 156.335 155.376C156.303 157.008 156.623 158.48 157.295 159.792C157.967 161.072 158.895 162.096 160.079 162.864C161.295 163.6 162.655 163.968 164.159 163.968ZM182.362 168V142.8H187.354V150.72L186.874 148.8C187.226 147.584 187.818 146.48 188.65 145.488C189.514 144.496 190.49 143.712 191.578 143.136C192.698 142.56 193.85 142.272 195.034 142.272C195.578 142.272 196.09 142.32 196.57 142.416C197.082 142.512 197.482 142.624 197.77 142.752L196.474 148.128C196.09 147.968 195.658 147.84 195.178 147.744C194.73 147.616 194.282 147.552 193.834 147.552C192.97 147.552 192.138 147.728 191.338 148.08C190.57 148.4 189.882 148.864 189.274 149.472C188.698 150.048 188.234 150.736 187.882 151.536C187.53 152.304 187.354 153.152 187.354 154.08V168H182.362ZM230.055 168.48C227.719 168.48 225.575 168.064 223.623 167.232C221.671 166.4 219.975 165.216 218.535 163.68C217.095 162.112 215.975 160.272 215.175 158.16C214.407 156.048 214.023 153.728 214.023 151.2C214.023 148.8 214.439 146.576 215.271 144.528C216.135 142.448 217.319 140.624 218.823 139.056C220.327 137.488 222.071 136.272 224.055 135.408C226.039 134.544 228.183 134.112 230.487 134.112C232.119 134.112 233.703 134.368 235.239 134.88C236.807 135.36 238.215 136.048 239.463 136.944C240.743 137.808 241.783 138.8 242.583 139.92L239.127 143.52C238.199 142.592 237.255 141.824 236.295 141.216C235.367 140.576 234.407 140.096 233.415 139.776C232.455 139.456 231.479 139.296 230.487 139.296C228.919 139.296 227.447 139.6 226.071 140.208C224.727 140.784 223.543 141.6 222.519 142.656C221.527 143.712 220.743 144.976 220.167 146.448C219.591 147.888 219.303 149.472 219.303 151.2C219.303 153.024 219.575 154.688 220.119 156.192C220.695 157.664 221.495 158.928 222.519 159.984C223.543 161.04 224.759 161.856 226.167 162.432C227.607 162.976 229.191 163.248 230.919 163.248C231.975 163.248 233.015 163.104 234.039 162.816C235.063 162.528 236.023 162.112 236.919 161.568C237.815 161.024 238.631 160.384 239.367 159.648L241.959 163.872C241.223 164.736 240.215 165.52 238.935 166.224C237.687 166.928 236.279 167.488 234.711 167.904C233.175 168.288 231.623 168.48 230.055 168.48ZM257.449 168.48C255.369 168.48 253.465 167.904 251.737 166.752C250.041 165.6 248.681 164.032 247.657 162.048C246.633 160.064 246.121 157.824 246.121 155.328C246.121 152.8 246.633 150.56 247.657 148.608C248.713 146.624 250.121 145.072 251.881 143.952C253.673 142.832 255.673 142.272 257.881 142.272C259.193 142.272 260.393 142.464 261.481 142.848C262.569 143.232 263.513 143.776 264.313 144.48C265.145 145.152 265.817 145.936 266.329 146.832C266.873 147.728 267.209 148.688 267.337 149.712L266.233 149.328V142.8H271.225V168H266.233V162L267.385 161.664C267.193 162.528 266.793 163.376 266.185 164.208C265.609 165.008 264.857 165.728 263.929 166.368C263.033 167.008 262.025 167.52 260.905 167.904C259.817 168.288 258.665 168.48 257.449 168.48ZM258.745 163.92C260.249 163.92 261.577 163.552 262.729 162.816C263.881 162.08 264.777 161.072 265.417 159.792C266.089 158.48 266.425 156.992 266.425 155.328C266.425 153.696 266.089 152.24 265.417 150.96C264.777 149.68 263.881 148.672 262.729 147.936C261.577 147.2 260.249 146.832 258.745 146.832C257.273 146.832 255.961 147.2 254.809 147.936C253.689 148.672 252.793 149.68 252.121 150.96C251.481 152.24 251.161 153.696 251.161 155.328C251.161 156.992 251.481 158.48 252.121 159.792C252.793 161.072 253.689 162.08 254.809 162.816C255.961 163.552 257.273 163.92 258.745 163.92ZM286.528 168.48C284.416 168.48 282.512 168.112 280.816 167.376C279.12 166.64 277.712 165.552 276.592 164.112L279.952 161.232C280.912 162.352 281.952 163.168 283.072 163.68C284.224 164.16 285.52 164.4 286.96 164.4C287.536 164.4 288.064 164.336 288.544 164.208C289.056 164.048 289.488 163.824 289.84 163.536C290.224 163.248 290.512 162.912 290.704 162.528C290.896 162.112 290.992 161.664 290.992 161.184C290.992 160.352 290.688 159.68 290.08 159.168C289.76 158.944 289.248 158.704 288.544 158.448C287.872 158.16 286.992 157.872 285.904 157.584C284.048 157.104 282.528 156.56 281.344 155.952C280.16 155.344 279.248 154.656 278.608 153.888C278.128 153.28 277.776 152.624 277.552 151.92C277.328 151.184 277.216 150.384 277.216 149.52C277.216 148.464 277.44 147.504 277.888 146.64C278.368 145.744 279.008 144.976 279.808 144.336C280.64 143.664 281.6 143.152 282.688 142.8C283.808 142.448 284.992 142.272 286.24 142.272C287.424 142.272 288.592 142.432 289.744 142.752C290.928 143.072 292.016 143.536 293.008 144.144C294 144.752 294.832 145.472 295.504 146.304L292.672 149.424C292.064 148.816 291.392 148.288 290.656 147.84C289.952 147.36 289.232 146.992 288.496 146.736C287.76 146.48 287.088 146.352 286.48 146.352C285.808 146.352 285.2 146.416 284.656 146.544C284.112 146.672 283.648 146.864 283.264 147.12C282.912 147.376 282.64 147.696 282.448 148.08C282.256 148.464 282.16 148.896 282.16 149.376C282.192 149.792 282.288 150.192 282.448 150.576C282.64 150.928 282.896 151.232 283.216 151.488C283.568 151.744 284.096 152.016 284.8 152.304C285.504 152.592 286.4 152.864 287.488 153.12C289.088 153.536 290.4 154 291.424 154.512C292.48 154.992 293.312 155.552 293.92 156.192C294.56 156.8 295.008 157.504 295.264 158.304C295.52 159.104 295.648 160 295.648 160.992C295.648 162.432 295.232 163.728 294.4 164.88C293.6 166 292.512 166.88 291.136 167.52C289.76 168.16 288.224 168.48 286.528 168.48ZM304.217 168V136.368H309.161V168H304.217ZM298.985 147.6V142.8H315.017V147.6H298.985ZM319.519 168V142.8H324.511V150.72L324.031 148.8C324.383 147.584 324.975 146.48 325.807 145.488C326.671 144.496 327.647 143.712 328.734 143.136C329.855 142.56 331.007 142.272 332.191 142.272C332.735 142.272 333.247 142.32 333.727 142.416C334.239 142.512 334.639 142.624 334.927 142.752L333.631 148.128C333.247 147.968 332.815 147.84 332.335 147.744C331.887 147.616 331.439 147.552 330.991 147.552C330.127 147.552 329.295 147.728 328.495 148.08C327.727 148.4 327.039 148.864 326.431 149.472C325.855 150.048 325.391 150.736 325.039 151.536C324.687 152.304 324.511 153.152 324.511 154.08V168H319.519ZM349.128 168.48C346.664 168.48 344.456 167.92 342.504 166.8C340.584 165.648 339.064 164.096 337.944 162.144C336.824 160.16 336.264 157.904 336.264 155.376C336.264 152.848 336.824 150.608 337.944 148.656C339.064 146.672 340.584 145.12 342.504 144C344.456 142.848 346.664 142.272 349.128 142.272C351.56 142.272 353.736 142.848 355.656 144C357.608 145.12 359.144 146.672 360.264 148.656C361.384 150.608 361.944 152.848 361.944 155.376C361.944 157.904 361.384 160.16 360.264 162.144C359.144 164.096 357.608 165.648 355.656 166.8C353.736 167.92 351.56 168.48 349.128 168.48ZM349.128 163.968C350.632 163.968 351.976 163.6 353.16 162.864C354.344 162.096 355.272 161.072 355.944 159.792C356.616 158.48 356.936 157.008 356.904 155.376C356.936 153.712 356.616 152.24 355.944 150.96C355.272 149.648 354.344 148.624 353.16 147.888C351.976 147.152 350.632 146.784 349.128 146.784C347.624 146.784 346.264 147.168 345.048 147.936C343.864 148.672 342.936 149.696 342.264 151.008C341.592 152.288 341.272 153.744 341.304 155.376C341.272 157.008 341.592 158.48 342.264 159.792C342.936 161.072 343.864 162.096 345.048 162.864C346.264 163.6 347.624 163.968 349.128 163.968ZM382.032 168V134.4H387.216V168H382.032ZM384.336 153.696V148.704H401.664V153.696H384.336ZM384.336 139.392V134.4H403.824V139.392H384.336ZM420.716 168.48C418.124 168.48 415.82 167.936 413.804 166.848C411.82 165.728 410.252 164.208 409.1 162.288C407.98 160.368 407.42 158.16 407.42 155.664C407.42 153.68 407.74 151.872 408.38 150.24C409.02 148.608 409.9 147.2 411.02 146.016C412.172 144.8 413.532 143.872 415.1 143.232C416.7 142.56 418.428 142.224 420.284 142.224C421.916 142.224 423.436 142.544 424.844 143.184C426.252 143.792 427.468 144.64 428.492 145.728C429.548 146.816 430.348 148.112 430.892 149.616C431.468 151.088 431.74 152.704 431.708 154.464L431.66 156.576H411.068L409.964 152.64H427.388L426.668 153.456V152.304C426.572 151.248 426.22 150.304 425.612 149.472C425.004 148.64 424.236 147.984 423.308 147.504C422.38 147.024 421.372 146.784 420.284 146.784C418.556 146.784 417.1 147.12 415.916 147.792C414.732 148.432 413.836 149.392 413.228 150.672C412.62 151.92 412.316 153.472 412.316 155.328C412.316 157.088 412.684 158.624 413.42 159.936C414.156 161.216 415.196 162.208 416.54 162.912C417.884 163.616 419.436 163.968 421.196 163.968C422.444 163.968 423.596 163.76 424.652 163.344C425.74 162.928 426.908 162.176 428.156 161.088L430.652 164.592C429.884 165.36 428.94 166.032 427.82 166.608C426.732 167.184 425.564 167.648 424.316 168C423.1 168.32 421.9 168.48 420.716 168.48ZM437.081 168V142.8H442.073V150.72L441.593 148.8C441.945 147.584 442.537 146.48 443.369 145.488C444.233 144.496 445.209 143.712 446.297 143.136C447.417 142.56 448.569 142.272 449.753 142.272C450.297 142.272 450.809 142.32 451.289 142.416C451.801 142.512 452.201 142.624 452.489 142.752L451.193 148.128C450.809 147.968 450.377 147.84 449.897 147.744C449.449 147.616 449.001 147.552 448.553 147.552C447.689 147.552 446.857 147.728 446.057 148.08C445.289 148.4 444.601 148.864 443.993 149.472C443.417 150.048 442.953 150.736 442.601 151.536C442.249 152.304 442.073 153.152 442.073 154.08V168H437.081ZM456.44 168V142.8H461.432V150.72L460.952 148.8C461.304 147.584 461.896 146.48 462.728 145.488C463.592 144.496 464.568 143.712 465.656 143.136C466.776 142.56 467.928 142.272 469.112 142.272C469.656 142.272 470.168 142.32 470.648 142.416C471.16 142.512 471.56 142.624 471.848 142.752L470.552 148.128C470.168 147.968 469.736 147.84 469.256 147.744C468.808 147.616 468.36 147.552 467.912 147.552C467.048 147.552 466.216 147.728 465.416 148.08C464.648 148.4 463.96 148.864 463.352 149.472C462.776 150.048 462.312 150.736 461.96 151.536C461.608 152.304 461.432 153.152 461.432 154.08V168H456.44ZM486.482 168.48C483.89 168.48 481.586 167.936 479.57 166.848C477.586 165.728 476.018 164.208 474.866 162.288C473.746 160.368 473.186 158.16 473.186 155.664C473.186 153.68 473.506 151.872 474.146 150.24C474.786 148.608 475.666 147.2 476.786 146.016C477.938 144.8 479.298 143.872 480.866 143.232C482.466 142.56 484.194 142.224 486.05 142.224C487.682 142.224 489.202 142.544 490.61 143.184C492.018 143.792 493.234 144.64 494.258 145.728C495.314 146.816 496.114 148.112 496.658 149.616C497.234 151.088 497.506 152.704 497.474 154.464L497.426 156.576H476.834L475.73 152.64H493.154L492.434 153.456V152.304C492.338 151.248 491.986 150.304 491.378 149.472C490.77 148.64 490.002 147.984 489.074 147.504C488.146 147.024 487.138 146.784 486.05 146.784C484.322 146.784 482.866 147.12 481.682 147.792C480.498 148.432 479.602 149.392 478.994 150.672C478.386 151.92 478.082 153.472 478.082 155.328C478.082 157.088 478.45 158.624 479.186 159.936C479.922 161.216 480.962 162.208 482.306 162.912C483.65 163.616 485.202 163.968 486.962 163.968C488.21 163.968 489.362 163.76 490.418 163.344C491.506 162.928 492.674 162.176 493.922 161.088L496.418 164.592C495.65 165.36 494.706 166.032 493.586 166.608C492.498 167.184 491.33 167.648 490.082 168C488.866 168.32 487.666 168.48 486.482 168.48ZM503.663 168V142.8H508.607V168H503.663ZM506.063 137.232C505.007 137.232 504.191 136.96 503.615 136.416C503.039 135.872 502.751 135.104 502.751 134.112C502.751 133.184 503.039 132.432 503.615 131.856C504.223 131.28 505.039 130.992 506.063 130.992C507.119 130.992 507.935 131.264 508.511 131.808C509.087 132.352 509.375 133.12 509.375 134.112C509.375 135.04 509.071 135.792 508.463 136.368C507.887 136.944 507.087 137.232 506.063 137.232ZM516.206 168V142.8H521.198V150.72L520.718 148.8C521.07 147.584 521.662 146.48 522.494 145.488C523.358 144.496 524.334 143.712 525.422 143.136C526.542 142.56 527.694 142.272 528.878 142.272C529.422 142.272 529.934 142.32 530.414 142.416C530.926 142.512 531.326 142.624 531.614 142.752L530.318 148.128C529.934 147.968 529.502 147.84 529.022 147.744C528.574 147.616 528.126 147.552 527.678 147.552C526.814 147.552 525.982 147.728 525.182 148.08C524.414 148.4 523.726 148.864 523.118 149.472C522.542 150.048 522.078 150.736 521.726 151.536C521.374 152.304 521.198 153.152 521.198 154.08V168H516.206ZM544.183 168.48C542.103 168.48 540.199 167.904 538.471 166.752C536.775 165.6 535.415 164.032 534.391 162.048C533.367 160.064 532.855 157.824 532.855 155.328C532.855 152.8 533.367 150.56 534.391 148.608C535.447 146.624 536.855 145.072 538.615 143.952C540.407 142.832 542.407 142.272 544.615 142.272C545.927 142.272 547.127 142.464 548.215 142.848C549.303 143.232 550.247 143.776 551.047 144.48C551.879 145.152 552.551 145.936 553.063 146.832C553.607 147.728 553.943 148.688 554.071 149.712L552.967 149.328V142.8H557.959V168H552.967V162L554.119 161.664C553.927 162.528 553.527 163.376 552.919 164.208C552.343 165.008 551.591 165.728 550.663 166.368C549.767 167.008 548.759 167.52 547.639 167.904C546.551 168.288 545.399 168.48 544.183 168.48ZM545.479 163.92C546.983 163.92 548.311 163.552 549.463 162.816C550.615 162.08 551.511 161.072 552.151 159.792C552.823 158.48 553.159 156.992 553.159 155.328C553.159 153.696 552.823 152.24 552.151 150.96C551.511 149.68 550.615 148.672 549.463 147.936C548.311 147.2 546.983 146.832 545.479 146.832C544.007 146.832 542.695 147.2 541.543 147.936C540.423 148.672 539.527 149.68 538.855 150.96C538.215 152.24 537.895 153.696 537.895 155.328C537.895 156.992 538.215 158.48 538.855 159.792C539.527 161.072 540.423 162.08 541.543 162.816C542.695 163.552 544.007 163.92 545.479 163.92Z" fill="#72FF03"/>
<path d="M8.076 41.628V25.724L9.112 26.508L5.248 28.552L4.436 25.92L9.672 23.12H11.128V41.628H8.076ZM4.968 43V40.088H14.32V43H4.968Z" fill="#1BF4C0"/>
<path d="M3.604 100L2.68 97.704L8.672 90.956C8.98933 90.62 9.316 90.2373 9.652 89.808C10.0067 89.36 10.3427 88.9027 10.66 88.436C10.9773 87.9693 11.2293 87.512 11.416 87.064C11.6213 86.5973 11.724 86.1587 11.724 85.748C11.724 85.1507 11.6027 84.6467 11.36 84.236C11.136 83.8067 10.8 83.48 10.352 83.256C9.92267 83.032 9.4 82.92 8.784 82.92C8.24267 82.92 7.71067 83.0787 7.188 83.396C6.66533 83.7133 6.18933 84.1613 5.76 84.74C5.33067 85.3187 4.99467 85.9907 4.752 86.756L2.428 85.3C2.74533 84.2173 3.22133 83.2933 3.856 82.528C4.50933 81.744 5.284 81.1467 6.18 80.736C7.09467 80.3253 8.084 80.12 9.148 80.12C10.2493 80.12 11.2293 80.3533 12.088 80.82C12.9467 81.268 13.6187 81.9027 14.104 82.724C14.5893 83.5267 14.832 84.46 14.832 85.524C14.832 85.9533 14.7853 86.392 14.692 86.84C14.5987 87.288 14.4493 87.7547 14.244 88.24C14.0387 88.7067 13.7773 89.2013 13.46 89.724C13.1427 90.228 12.76 90.76 12.312 91.32C11.8827 91.88 11.388 92.468 10.828 93.084L6.376 97.928L5.816 97.088H15.448V100H3.604Z" fill="#1BF4C0"/>
<path d="M7.028 157.28C5.64667 157.28 4.44267 156.963 3.416 156.328C2.408 155.693 1.456 154.629 0.56 153.136L2.912 151.652C3.37867 152.343 3.836 152.912 4.284 153.36C4.75067 153.789 5.22667 154.107 5.712 154.312C6.19733 154.517 6.71067 154.62 7.252 154.62C7.90533 154.62 8.512 154.461 9.072 154.144C9.632 153.808 10.08 153.351 10.416 152.772C10.752 152.193 10.92 151.54 10.92 150.812C10.92 150.084 10.7893 149.468 10.528 148.964C10.2667 148.441 9.884 148.049 9.38 147.788C8.876 147.508 8.27867 147.368 7.588 147.368C7.27067 147.368 6.93467 147.405 6.58 147.48C6.244 147.536 5.88 147.629 5.488 147.76C5.096 147.872 4.66667 148.021 4.2 148.208L3.36 145.996L9.408 139.332L9.996 140.2H1.652V137.4H12.88L13.44 138.52L7.028 145.632L6.328 144.904C6.47733 144.829 6.72 144.764 7.056 144.708C7.41067 144.633 7.7 144.596 7.924 144.596C8.74533 144.596 9.51067 144.755 10.22 145.072C10.948 145.371 11.5733 145.8 12.096 146.36C12.6373 146.901 13.0573 147.545 13.356 148.292C13.6733 149.02 13.832 149.804 13.832 150.644C13.832 151.913 13.524 153.052 12.908 154.06C12.3107 155.049 11.4987 155.833 10.472 156.412C9.44533 156.991 8.29733 157.28 7.028 157.28Z" fill="#1BF4C0"/>
<path d="M9.856 214V198.208L10.556 198.376L4.116 206.244L4.004 205.908H16.184V208.68H2.128L0.84 206.16L10.444 194.4H12.768V214H9.856Z" fill="#1BF4C0"/>
</svg>
