<svg width="645" height="244" viewBox="0 0 645 244" fill="none" xmlns="http://www.w3.org/2000/svg">
<path d="M50.864 54.336L70.64 14.4H75.392L55.664 54.336H50.864ZM84.3508 29.952L84.7348 24.432H84.9748L80.0308 27.792L78.2548 24.672L83.6308 22.08L83.5348 22.32L78.1588 19.728L79.9828 16.656L84.9748 20.016L84.7348 19.92L84.3508 14.4H87.9508L87.5188 20.496L87.1348 20.112L92.0788 16.752L93.8548 19.872L88.4308 22.512V21.984L93.8068 24.624L92.0308 27.696L87.0388 24.336L87.5668 24.432L87.9508 29.952H84.3508ZM108.517 108V74.4H122.197C124.021 74.4 125.669 74.864 127.141 75.792C128.645 76.688 129.845 77.92 130.741 79.488C131.637 81.056 132.085 82.8 132.085 84.72C132.085 86.64 131.637 88.384 130.741 89.952C129.845 91.52 128.645 92.784 127.141 93.744C125.669 94.672 124.021 95.136 122.197 95.136H113.701V108H108.517ZM113.701 90.144H122.101C122.965 90.144 123.749 89.904 124.453 89.424C125.157 88.912 125.717 88.256 126.133 87.456C126.581 86.624 126.805 85.712 126.805 84.72C126.805 83.728 126.581 82.832 126.133 82.032C125.717 81.232 125.157 80.592 124.453 80.112C123.749 79.632 122.965 79.392 122.101 79.392H113.701V90.144ZM148.55 108.48C146.086 108.48 143.878 107.92 141.926 106.8C140.006 105.648 138.486 104.096 137.366 102.144C136.246 100.16 135.686 97.904 135.686 95.376C135.686 92.848 136.246 90.608 137.366 88.656C138.486 86.672 140.006 85.12 141.926 84C143.878 82.848 146.086 82.272 148.55 82.272C150.982 82.272 153.158 82.848 155.078 84C157.03 85.12 158.566 86.672 159.686 88.656C160.806 90.608 161.366 92.848 161.366 95.376C161.366 97.904 160.806 100.16 159.686 102.144C158.566 104.096 157.03 105.648 155.078 106.8C153.158 107.92 150.982 108.48 148.55 108.48ZM148.55 103.968C150.054 103.968 151.398 103.6 152.582 102.864C153.766 102.096 154.694 101.072 155.366 99.792C156.038 98.48 156.358 97.008 156.326 95.376C156.358 93.712 156.038 92.24 155.366 90.96C154.694 89.648 153.766 88.624 152.582 87.888C151.398 87.152 150.054 86.784 148.55 86.784C147.046 86.784 145.686 87.168 144.47 87.936C143.286 88.672 142.358 89.696 141.686 91.008C141.014 92.288 140.694 93.744 140.726 95.376C140.694 97.008 141.014 98.48 141.686 99.792C142.358 101.072 143.286 102.096 144.47 102.864C145.686 103.6 147.046 103.968 148.55 103.968ZM166.753 108V82.8H171.745V90.72L171.265 88.8C171.617 87.584 172.209 86.48 173.041 85.488C173.905 84.496 174.881 83.712 175.969 83.136C177.089 82.56 178.241 82.272 179.425 82.272C179.969 82.272 180.481 82.32 180.961 82.416C181.473 82.512 181.873 82.624 182.161 82.752L180.865 88.128C180.481 87.968 180.049 87.84 179.569 87.744C179.121 87.616 178.673 87.552 178.225 87.552C177.361 87.552 176.529 87.728 175.729 88.08C174.961 88.4 174.273 88.864 173.665 89.472C173.089 90.048 172.625 90.736 172.273 91.536C171.921 92.304 171.745 93.152 171.745 94.08V108H166.753ZM190.17 108V76.368H195.114V108H190.17ZM184.938 87.6V82.8H200.97V87.6H184.938ZM206.989 108V79.968C206.989 78.528 207.309 77.248 207.949 76.128C208.589 75.008 209.469 74.128 210.589 73.488C211.709 72.848 213.005 72.528 214.477 72.528C215.501 72.528 216.461 72.72 217.357 73.104C218.253 73.488 218.973 74 219.517 74.64L217.837 78.432C217.421 78.048 216.957 77.744 216.445 77.52C215.965 77.264 215.501 77.136 215.053 77.136C214.381 77.136 213.805 77.248 213.325 77.472C212.877 77.664 212.541 77.984 212.317 78.432C212.093 78.848 211.981 79.36 211.981 79.968V108H209.485C209.069 108 208.653 108 208.237 108C207.821 108 207.405 108 206.989 108ZM202.957 87.792V83.232H217.933V87.792H202.957ZM233.487 108.48C231.023 108.48 228.815 107.92 226.863 106.8C224.943 105.648 223.423 104.096 222.303 102.144C221.183 100.16 220.623 97.904 220.623 95.376C220.623 92.848 221.183 90.608 222.303 88.656C223.423 86.672 224.943 85.12 226.863 84C228.815 82.848 231.023 82.272 233.487 82.272C235.919 82.272 238.095 82.848 240.015 84C241.967 85.12 243.503 86.672 244.623 88.656C245.743 90.608 246.303 92.848 246.303 95.376C246.303 97.904 245.743 100.16 244.623 102.144C243.503 104.096 241.967 105.648 240.015 106.8C238.095 107.92 235.919 108.48 233.487 108.48ZM233.487 103.968C234.991 103.968 236.335 103.6 237.519 102.864C238.703 102.096 239.631 101.072 240.303 99.792C240.975 98.48 241.295 97.008 241.263 95.376C241.295 93.712 240.975 92.24 240.303 90.96C239.631 89.648 238.703 88.624 237.519 87.888C236.335 87.152 234.991 86.784 233.487 86.784C231.983 86.784 230.623 87.168 229.407 87.936C228.223 88.672 227.295 89.696 226.623 91.008C225.951 92.288 225.631 93.744 225.663 95.376C225.631 97.008 225.951 98.48 226.623 99.792C227.295 101.072 228.223 102.096 229.407 102.864C230.623 103.6 231.983 103.968 233.487 103.968ZM230.127 78.912L228.495 76.464L235.359 70.464L238.479 74.4L230.127 78.912ZM251.786 108V72.48H256.73V108H251.786ZM264.553 108V82.8H269.497V108H264.553ZM266.953 77.232C265.897 77.232 265.081 76.96 264.505 76.416C263.929 75.872 263.641 75.104 263.641 74.112C263.641 73.184 263.929 72.432 264.505 71.856C265.113 71.28 265.929 70.992 266.953 70.992C268.009 70.992 268.825 71.264 269.401 71.808C269.977 72.352 270.265 73.12 270.265 74.112C270.265 75.04 269.961 75.792 269.353 76.368C268.777 76.944 267.977 77.232 266.953 77.232ZM288.425 108.48C285.961 108.48 283.753 107.92 281.801 106.8C279.881 105.648 278.361 104.096 277.241 102.144C276.121 100.16 275.561 97.904 275.561 95.376C275.561 92.848 276.121 90.608 277.241 88.656C278.361 86.672 279.881 85.12 281.801 84C283.753 82.848 285.961 82.272 288.425 82.272C290.857 82.272 293.033 82.848 294.953 84C296.905 85.12 298.441 86.672 299.561 88.656C300.681 90.608 301.241 92.848 301.241 95.376C301.241 97.904 300.681 100.16 299.561 102.144C298.441 104.096 296.905 105.648 294.953 106.8C293.033 107.92 290.857 108.48 288.425 108.48ZM288.425 103.968C289.929 103.968 291.273 103.6 292.457 102.864C293.641 102.096 294.569 101.072 295.241 99.792C295.913 98.48 296.233 97.008 296.201 95.376C296.233 93.712 295.913 92.24 295.241 90.96C294.569 89.648 293.641 88.624 292.457 87.888C291.273 87.152 289.929 86.784 288.425 86.784C286.921 86.784 285.561 87.168 284.345 87.936C283.161 88.672 282.233 89.696 281.561 91.008C280.889 92.288 280.569 93.744 280.601 95.376C280.569 97.008 280.889 98.48 281.561 99.792C282.233 101.072 283.161 102.096 284.345 102.864C285.561 103.6 286.921 103.968 288.425 103.968ZM57.632 209.952L58.016 204.432H58.256L53.312 207.792L51.536 204.672L56.912 202.08L56.816 202.32L51.44 199.728L53.264 196.656L58.256 200.016L58.016 199.92L57.632 194.4H61.232L60.8 200.496L60.416 200.112L65.36 196.752L67.136 199.872L61.712 202.512V201.984L67.088 204.624L65.312 207.696L60.32 204.336L60.848 204.432L61.232 209.952H57.632ZM69.4265 234.336L89.2025 194.4H93.9545L74.2265 234.336H69.4265Z" fill="#F5F5F5"/>
<path d="M117.541 168V151.248L117.877 153.6L104.293 134.4H110.533L120.901 149.28L119.701 149.136L129.061 134.4H135.013L122.005 154.128L122.725 150.864V168H117.541ZM146.392 179.04C144.6 179.04 142.808 178.752 141.016 178.176C139.256 177.632 137.832 176.912 136.744 176.016L138.568 172.176C139.208 172.656 139.96 173.072 140.824 173.424C141.688 173.808 142.6 174.096 143.56 174.288C144.52 174.512 145.464 174.624 146.392 174.624C148.152 174.624 149.624 174.336 150.808 173.76C151.992 173.184 152.888 172.336 153.496 171.216C154.104 170.096 154.408 168.704 154.408 167.04V162.192L154.936 162.528C154.776 163.52 154.248 164.48 153.352 165.408C152.488 166.304 151.4 167.04 150.088 167.616C148.776 168.192 147.432 168.48 146.056 168.48C143.656 168.48 141.512 167.92 139.624 166.8C137.768 165.648 136.296 164.096 135.208 162.144C134.12 160.16 133.576 157.904 133.576 155.376C133.576 152.848 134.104 150.608 135.16 148.656C136.248 146.672 137.72 145.12 139.576 144C141.464 142.848 143.576 142.272 145.912 142.272C146.872 142.272 147.8 142.4 148.696 142.656C149.592 142.88 150.424 143.216 151.192 143.664C151.96 144.08 152.648 144.544 153.256 145.056C153.864 145.568 154.36 146.112 154.744 146.688C155.128 147.264 155.368 147.808 155.464 148.32L154.408 148.704V142.8H159.352V166.464C159.352 168.48 159.048 170.256 158.44 171.792C157.864 173.36 157.016 174.672 155.896 175.728C154.776 176.816 153.416 177.632 151.816 178.176C150.216 178.752 148.408 179.04 146.392 179.04ZM146.584 163.92C148.152 163.92 149.544 163.552 150.76 162.816C151.976 162.08 152.92 161.072 153.592 159.792C154.264 158.512 154.6 157.04 154.6 155.376C154.6 153.712 154.248 152.24 153.544 150.96C152.872 149.648 151.928 148.624 150.712 147.888C149.528 147.152 148.152 146.784 146.584 146.784C145.048 146.784 143.672 147.168 142.456 147.936C141.272 148.672 140.328 149.696 139.624 151.008C138.952 152.288 138.616 153.744 138.616 155.376C138.616 157.008 138.952 158.48 139.624 159.792C140.328 161.072 141.272 162.08 142.456 162.816C143.672 163.552 145.048 163.92 146.584 163.92ZM177.612 168.48C175.148 168.48 172.94 167.92 170.988 166.8C169.068 165.648 167.548 164.096 166.428 162.144C165.308 160.16 164.748 157.904 164.748 155.376C164.748 152.848 165.308 150.608 166.428 148.656C167.548 146.672 169.068 145.12 170.988 144C172.94 142.848 175.148 142.272 177.612 142.272C180.044 142.272 182.22 142.848 184.14 144C186.092 145.12 187.628 146.672 188.748 148.656C189.868 150.608 190.428 152.848 190.428 155.376C190.428 157.904 189.868 160.16 188.748 162.144C187.628 164.096 186.092 165.648 184.14 166.8C182.22 167.92 180.044 168.48 177.612 168.48ZM177.612 163.968C179.116 163.968 180.46 163.6 181.644 162.864C182.828 162.096 183.756 161.072 184.428 159.792C185.1 158.48 185.42 157.008 185.388 155.376C185.42 153.712 185.1 152.24 184.428 150.96C183.756 149.648 182.828 148.624 181.644 147.888C180.46 147.152 179.116 146.784 177.612 146.784C176.108 146.784 174.748 147.168 173.532 147.936C172.348 148.672 171.42 149.696 170.748 151.008C170.076 152.288 169.756 153.744 169.788 155.376C169.756 157.008 170.076 158.48 170.748 159.792C171.42 161.072 172.348 162.096 173.532 162.864C174.748 163.6 176.108 163.968 177.612 163.968ZM195.815 168V142.8H200.807V150.72L200.327 148.8C200.679 147.584 201.271 146.48 202.103 145.488C202.967 144.496 203.943 143.712 205.031 143.136C206.151 142.56 207.303 142.272 208.487 142.272C209.031 142.272 209.543 142.32 210.023 142.416C210.535 142.512 210.935 142.624 211.223 142.752L209.927 148.128C209.543 147.968 209.111 147.84 208.631 147.744C208.183 147.616 207.735 147.552 207.287 147.552C206.423 147.552 205.591 147.728 204.791 148.08C204.023 148.4 203.335 148.864 202.727 149.472C202.151 150.048 201.687 150.736 201.335 151.536C200.983 152.304 200.807 153.152 200.807 154.08V168H195.815ZM243.508 168.48C241.172 168.48 239.028 168.064 237.076 167.232C235.124 166.4 233.428 165.216 231.988 163.68C230.548 162.112 229.428 160.272 228.628 158.16C227.86 156.048 227.476 153.728 227.476 151.2C227.476 148.8 227.892 146.576 228.724 144.528C229.588 142.448 230.772 140.624 232.276 139.056C233.78 137.488 235.524 136.272 237.508 135.408C239.492 134.544 241.636 134.112 243.94 134.112C245.572 134.112 247.156 134.368 248.692 134.88C250.26 135.36 251.668 136.048 252.916 136.944C254.196 137.808 255.236 138.8 256.036 139.92L252.58 143.52C251.652 142.592 250.708 141.824 249.748 141.216C248.82 140.576 247.86 140.096 246.868 139.776C245.908 139.456 244.932 139.296 243.94 139.296C242.372 139.296 240.9 139.6 239.524 140.208C238.18 140.784 236.996 141.6 235.972 142.656C234.98 143.712 234.196 144.976 233.62 146.448C233.044 147.888 232.756 149.472 232.756 151.2C232.756 153.024 233.028 154.688 233.572 156.192C234.148 157.664 234.948 158.928 235.972 159.984C236.996 161.04 238.212 161.856 239.62 162.432C241.06 162.976 242.644 163.248 244.372 163.248C245.428 163.248 246.468 163.104 247.492 162.816C248.516 162.528 249.476 162.112 250.372 161.568C251.268 161.024 252.084 160.384 252.82 159.648L255.412 163.872C254.676 164.736 253.668 165.52 252.388 166.224C251.14 166.928 249.732 167.488 248.164 167.904C246.628 168.288 245.076 168.48 243.508 168.48ZM270.902 168.48C268.822 168.48 266.918 167.904 265.19 166.752C263.494 165.6 262.134 164.032 261.11 162.048C260.086 160.064 259.574 157.824 259.574 155.328C259.574 152.8 260.086 150.56 261.11 148.608C262.166 146.624 263.574 145.072 265.334 143.952C267.126 142.832 269.126 142.272 271.334 142.272C272.646 142.272 273.846 142.464 274.934 142.848C276.022 143.232 276.966 143.776 277.766 144.48C278.598 145.152 279.27 145.936 279.782 146.832C280.326 147.728 280.662 148.688 280.79 149.712L279.686 149.328V142.8H284.678V168H279.686V162L280.838 161.664C280.646 162.528 280.246 163.376 279.638 164.208C279.062 165.008 278.31 165.728 277.382 166.368C276.486 167.008 275.478 167.52 274.358 167.904C273.27 168.288 272.118 168.48 270.902 168.48ZM272.198 163.92C273.702 163.92 275.03 163.552 276.182 162.816C277.334 162.08 278.23 161.072 278.87 159.792C279.542 158.48 279.878 156.992 279.878 155.328C279.878 153.696 279.542 152.24 278.87 150.96C278.23 149.68 277.334 148.672 276.182 147.936C275.03 147.2 273.702 146.832 272.198 146.832C270.726 146.832 269.414 147.2 268.262 147.936C267.142 148.672 266.246 149.68 265.574 150.96C264.934 152.24 264.614 153.696 264.614 155.328C264.614 156.992 264.934 158.48 265.574 159.792C266.246 161.072 267.142 162.08 268.262 162.816C269.414 163.552 270.726 163.92 272.198 163.92ZM299.981 168.48C297.869 168.48 295.965 168.112 294.269 167.376C292.573 166.64 291.165 165.552 290.045 164.112L293.405 161.232C294.365 162.352 295.405 163.168 296.525 163.68C297.677 164.16 298.973 164.4 300.413 164.4C300.989 164.4 301.517 164.336 301.997 164.208C302.509 164.048 302.941 163.824 303.293 163.536C303.677 163.248 303.965 162.912 304.157 162.528C304.349 162.112 304.445 161.664 304.445 161.184C304.445 160.352 304.141 159.68 303.533 159.168C303.213 158.944 302.701 158.704 301.997 158.448C301.325 158.16 300.445 157.872 299.357 157.584C297.501 157.104 295.981 156.56 294.797 155.952C293.613 155.344 292.701 154.656 292.061 153.888C291.581 153.28 291.229 152.624 291.005 151.92C290.781 151.184 290.669 150.384 290.669 149.52C290.669 148.464 290.893 147.504 291.341 146.64C291.821 145.744 292.461 144.976 293.261 144.336C294.093 143.664 295.053 143.152 296.141 142.8C297.261 142.448 298.445 142.272 299.693 142.272C300.877 142.272 302.045 142.432 303.197 142.752C304.381 143.072 305.469 143.536 306.461 144.144C307.453 144.752 308.285 145.472 308.957 146.304L306.125 149.424C305.517 148.816 304.845 148.288 304.109 147.84C303.405 147.36 302.685 146.992 301.949 146.736C301.213 146.48 300.541 146.352 299.933 146.352C299.261 146.352 298.653 146.416 298.109 146.544C297.565 146.672 297.101 146.864 296.717 147.12C296.365 147.376 296.093 147.696 295.901 148.08C295.709 148.464 295.613 148.896 295.613 149.376C295.645 149.792 295.741 150.192 295.901 150.576C296.093 150.928 296.349 151.232 296.669 151.488C297.021 151.744 297.549 152.016 298.253 152.304C298.957 152.592 299.853 152.864 300.941 153.12C302.541 153.536 303.853 154 304.877 154.512C305.933 154.992 306.765 155.552 307.373 156.192C308.013 156.8 308.461 157.504 308.717 158.304C308.973 159.104 309.101 160 309.101 160.992C309.101 162.432 308.685 163.728 307.853 164.88C307.053 166 305.965 166.88 304.589 167.52C303.213 168.16 301.677 168.48 299.981 168.48ZM317.67 168V136.368H322.614V168H317.67ZM312.438 147.6V142.8H328.47V147.6H312.438ZM332.972 168V142.8H337.964V150.72L337.484 148.8C337.836 147.584 338.428 146.48 339.26 145.488C340.124 144.496 341.1 143.712 342.188 143.136C343.308 142.56 344.46 142.272 345.644 142.272C346.188 142.272 346.7 142.32 347.18 142.416C347.692 142.512 348.092 142.624 348.38 142.752L347.084 148.128C346.7 147.968 346.268 147.84 345.788 147.744C345.34 147.616 344.892 147.552 344.444 147.552C343.58 147.552 342.748 147.728 341.948 148.08C341.18 148.4 340.492 148.864 339.884 149.472C339.308 150.048 338.844 150.736 338.492 151.536C338.14 152.304 337.964 153.152 337.964 154.08V168H332.972ZM362.581 168.48C360.117 168.48 357.909 167.92 355.957 166.8C354.037 165.648 352.517 164.096 351.397 162.144C350.277 160.16 349.717 157.904 349.717 155.376C349.717 152.848 350.277 150.608 351.397 148.656C352.517 146.672 354.037 145.12 355.957 144C357.909 142.848 360.117 142.272 362.581 142.272C365.013 142.272 367.189 142.848 369.109 144C371.061 145.12 372.597 146.672 373.717 148.656C374.837 150.608 375.397 152.848 375.397 155.376C375.397 157.904 374.837 160.16 373.717 162.144C372.597 164.096 371.061 165.648 369.109 166.8C367.189 167.92 365.013 168.48 362.581 168.48ZM362.581 163.968C364.085 163.968 365.429 163.6 366.613 162.864C367.797 162.096 368.725 161.072 369.397 159.792C370.069 158.48 370.389 157.008 370.357 155.376C370.389 153.712 370.069 152.24 369.397 150.96C368.725 149.648 367.797 148.624 366.613 147.888C365.429 147.152 364.085 146.784 362.581 146.784C361.077 146.784 359.717 147.168 358.501 147.936C357.317 148.672 356.389 149.696 355.717 151.008C355.045 152.288 354.725 153.744 354.757 155.376C354.725 157.008 355.045 158.48 355.717 159.792C356.389 161.072 357.317 162.096 358.501 162.864C359.717 163.6 361.077 163.968 362.581 163.968ZM395.485 168V134.4H400.669V168H395.485ZM397.789 153.696V148.704H415.117V153.696H397.789ZM397.789 139.392V134.4H417.277V139.392H397.789ZM434.169 168.48C431.577 168.48 429.273 167.936 427.257 166.848C425.273 165.728 423.705 164.208 422.553 162.288C421.433 160.368 420.873 158.16 420.873 155.664C420.873 153.68 421.193 151.872 421.833 150.24C422.473 148.608 423.353 147.2 424.473 146.016C425.625 144.8 426.985 143.872 428.553 143.232C430.153 142.56 431.881 142.224 433.737 142.224C435.369 142.224 436.889 142.544 438.297 143.184C439.705 143.792 440.921 144.64 441.945 145.728C443.001 146.816 443.801 148.112 444.345 149.616C444.921 151.088 445.193 152.704 445.161 154.464L445.113 156.576H424.521L423.417 152.64H440.841L440.121 153.456V152.304C440.025 151.248 439.673 150.304 439.065 149.472C438.457 148.64 437.689 147.984 436.761 147.504C435.833 147.024 434.825 146.784 433.737 146.784C432.009 146.784 430.553 147.12 429.369 147.792C428.185 148.432 427.289 149.392 426.681 150.672C426.073 151.92 425.769 153.472 425.769 155.328C425.769 157.088 426.137 158.624 426.873 159.936C427.609 161.216 428.649 162.208 429.993 162.912C431.337 163.616 432.889 163.968 434.649 163.968C435.897 163.968 437.049 163.76 438.105 163.344C439.193 162.928 440.361 162.176 441.609 161.088L444.105 164.592C443.337 165.36 442.393 166.032 441.273 166.608C440.185 167.184 439.017 167.648 437.769 168C436.553 168.32 435.353 168.48 434.169 168.48ZM450.534 168V142.8H455.526V150.72L455.046 148.8C455.398 147.584 455.99 146.48 456.822 145.488C457.686 144.496 458.662 143.712 459.75 143.136C460.87 142.56 462.022 142.272 463.206 142.272C463.75 142.272 464.262 142.32 464.742 142.416C465.254 142.512 465.654 142.624 465.942 142.752L464.646 148.128C464.262 147.968 463.83 147.84 463.35 147.744C462.902 147.616 462.454 147.552 462.006 147.552C461.142 147.552 460.31 147.728 459.51 148.08C458.742 148.4 458.054 148.864 457.446 149.472C456.87 150.048 456.406 150.736 456.054 151.536C455.702 152.304 455.526 153.152 455.526 154.08V168H450.534ZM469.894 168V142.8H474.886V150.72L474.406 148.8C474.758 147.584 475.35 146.48 476.182 145.488C477.046 144.496 478.022 143.712 479.109 143.136C480.23 142.56 481.382 142.272 482.566 142.272C483.11 142.272 483.622 142.32 484.102 142.416C484.614 142.512 485.014 142.624 485.302 142.752L484.006 148.128C483.622 147.968 483.19 147.84 482.71 147.744C482.262 147.616 481.814 147.552 481.366 147.552C480.502 147.552 479.67 147.728 478.87 148.08C478.102 148.4 477.414 148.864 476.806 149.472C476.23 150.048 475.766 150.736 475.414 151.536C475.062 152.304 474.886 153.152 474.886 154.08V168H469.894ZM499.935 168.48C497.343 168.48 495.039 167.936 493.023 166.848C491.039 165.728 489.471 164.208 488.319 162.288C487.199 160.368 486.639 158.16 486.639 155.664C486.639 153.68 486.959 151.872 487.599 150.24C488.239 148.608 489.119 147.2 490.239 146.016C491.391 144.8 492.751 143.872 494.319 143.232C495.919 142.56 497.647 142.224 499.503 142.224C501.135 142.224 502.655 142.544 504.063 143.184C505.471 143.792 506.687 144.64 507.711 145.728C508.767 146.816 509.567 148.112 510.111 149.616C510.687 151.088 510.959 152.704 510.927 154.464L510.879 156.576H490.287L489.183 152.64H506.607L505.887 153.456V152.304C505.791 151.248 505.439 150.304 504.831 149.472C504.223 148.64 503.455 147.984 502.527 147.504C501.599 147.024 500.591 146.784 499.503 146.784C497.775 146.784 496.319 147.12 495.135 147.792C493.951 148.432 493.055 149.392 492.447 150.672C491.839 151.92 491.535 153.472 491.535 155.328C491.535 157.088 491.903 158.624 492.639 159.936C493.375 161.216 494.415 162.208 495.759 162.912C497.103 163.616 498.655 163.968 500.415 163.968C501.663 163.968 502.815 163.76 503.871 163.344C504.959 162.928 506.127 162.176 507.375 161.088L509.871 164.592C509.103 165.36 508.159 166.032 507.039 166.608C505.951 167.184 504.783 167.648 503.535 168C502.319 168.32 501.119 168.48 499.935 168.48ZM517.116 168V142.8H522.06V168H517.116ZM519.516 137.232C518.46 137.232 517.644 136.96 517.068 136.416C516.492 135.872 516.204 135.104 516.204 134.112C516.204 133.184 516.492 132.432 517.068 131.856C517.676 131.28 518.492 130.992 519.516 130.992C520.572 130.992 521.388 131.264 521.964 131.808C522.54 132.352 522.828 133.12 522.828 134.112C522.828 135.04 522.524 135.792 521.916 136.368C521.34 136.944 520.54 137.232 519.516 137.232ZM529.659 168V142.8H534.651V150.72L534.171 148.8C534.523 147.584 535.115 146.48 535.947 145.488C536.811 144.496 537.787 143.712 538.875 143.136C539.995 142.56 541.147 142.272 542.331 142.272C542.875 142.272 543.387 142.32 543.867 142.416C544.379 142.512 544.779 142.624 545.067 142.752L543.771 148.128C543.387 147.968 542.955 147.84 542.475 147.744C542.027 147.616 541.579 147.552 541.131 147.552C540.267 147.552 539.435 147.728 538.635 148.08C537.867 148.4 537.179 148.864 536.571 149.472C535.995 150.048 535.531 150.736 535.179 151.536C534.827 152.304 534.651 153.152 534.651 154.08V168H529.659ZM557.636 168.48C555.556 168.48 553.652 167.904 551.924 166.752C550.228 165.6 548.868 164.032 547.844 162.048C546.82 160.064 546.308 157.824 546.308 155.328C546.308 152.8 546.82 150.56 547.844 148.608C548.9 146.624 550.308 145.072 552.068 143.952C553.86 142.832 555.86 142.272 558.068 142.272C559.38 142.272 560.58 142.464 561.668 142.848C562.756 143.232 563.7 143.776 564.5 144.48C565.332 145.152 566.004 145.936 566.516 146.832C567.06 147.728 567.396 148.688 567.524 149.712L566.42 149.328V142.8H571.412V168H566.42V162L567.572 161.664C567.38 162.528 566.98 163.376 566.372 164.208C565.796 165.008 565.044 165.728 564.116 166.368C563.22 167.008 562.212 167.52 561.092 167.904C560.004 168.288 558.852 168.48 557.636 168.48ZM558.932 163.92C560.436 163.92 561.764 163.552 562.916 162.816C564.068 162.08 564.964 161.072 565.604 159.792C566.276 158.48 566.612 156.992 566.612 155.328C566.612 153.696 566.276 152.24 565.604 150.96C564.964 149.68 564.068 148.672 562.916 147.936C561.764 147.2 560.436 146.832 558.932 146.832C557.46 146.832 556.148 147.2 554.996 147.936C553.876 148.672 552.98 149.68 552.308 150.96C551.668 152.24 551.348 153.696 551.348 155.328C551.348 156.992 551.668 158.48 552.308 159.792C552.98 161.072 553.876 162.08 554.996 162.816C556.148 163.552 557.46 163.92 558.932 163.92Z" fill="#72FF03"/>
<path d="M8.076 41.628V25.724L9.112 26.508L5.248 28.552L4.436 25.92L9.672 23.12H11.128V41.628H8.076ZM4.968 43V40.088H14.32V43H4.968Z" fill="#1BF4C0"/>
<path d="M3.604 100L2.68 97.704L8.672 90.956C8.98933 90.62 9.316 90.2373 9.652 89.808C10.0067 89.36 10.3427 88.9027 10.66 88.436C10.9773 87.9693 11.2293 87.512 11.416 87.064C11.6213 86.5973 11.724 86.1587 11.724 85.748C11.724 85.1507 11.6027 84.6467 11.36 84.236C11.136 83.8067 10.8 83.48 10.352 83.256C9.92267 83.032 9.4 82.92 8.784 82.92C8.24267 82.92 7.71067 83.0787 7.188 83.396C6.66533 83.7133 6.18933 84.1613 5.76 84.74C5.33067 85.3187 4.99467 85.9907 4.752 86.756L2.428 85.3C2.74533 84.2173 3.22133 83.2933 3.856 82.528C4.50933 81.744 5.284 81.1467 6.18 80.736C7.09467 80.3253 8.084 80.12 9.148 80.12C10.2493 80.12 11.2293 80.3533 12.088 80.82C12.9467 81.268 13.6187 81.9027 14.104 82.724C14.5893 83.5267 14.832 84.46 14.832 85.524C14.832 85.9533 14.7853 86.392 14.692 86.84C14.5987 87.288 14.4493 87.7547 14.244 88.24C14.0387 88.7067 13.7773 89.2013 13.46 89.724C13.1427 90.228 12.76 90.76 12.312 91.32C11.8827 91.88 11.388 92.468 10.828 93.084L6.376 97.928L5.816 97.088H15.448V100H3.604Z" fill="#1BF4C0"/>
<path d="M7.028 157.28C5.64667 157.28 4.44267 156.963 3.416 156.328C2.408 155.693 1.456 154.629 0.56 153.136L2.912 151.652C3.37867 152.343 3.836 152.912 4.284 153.36C4.75067 153.789 5.22667 154.107 5.712 154.312C6.19733 154.517 6.71067 154.62 7.252 154.62C7.90533 154.62 8.512 154.461 9.072 154.144C9.632 153.808 10.08 153.351 10.416 152.772C10.752 152.193 10.92 151.54 10.92 150.812C10.92 150.084 10.7893 149.468 10.528 148.964C10.2667 148.441 9.884 148.049 9.38 147.788C8.876 147.508 8.27867 147.368 7.588 147.368C7.27067 147.368 6.93467 147.405 6.58 147.48C6.244 147.536 5.88 147.629 5.488 147.76C5.096 147.872 4.66667 148.021 4.2 148.208L3.36 145.996L9.408 139.332L9.996 140.2H1.652V137.4H12.88L13.44 138.52L7.028 145.632L6.328 144.904C6.47733 144.829 6.72 144.764 7.056 144.708C7.41067 144.633 7.7 144.596 7.924 144.596C8.74533 144.596 9.51067 144.755 10.22 145.072C10.948 145.371 11.5733 145.8 12.096 146.36C12.6373 146.901 13.0573 147.545 13.356 148.292C13.6733 149.02 13.832 149.804 13.832 150.644C13.832 151.913 13.524 153.052 12.908 154.06C12.3107 155.049 11.4987 155.833 10.472 156.412C9.44533 156.991 8.29733 157.28 7.028 157.28Z" fill="#1BF4C0"/>
<path d="M9.856 214V198.208L10.556 198.376L4.116 206.244L4.004 205.908H16.184V208.68H2.128L0.84 206.16L10.444 194.4H12.768V214H9.856Z" fill="#1BF4C0"/>
</svg>
