<svg width="645" height="244" viewBox="0 0 645 244" fill="none" xmlns="http://www.w3.org/2000/svg">
<path d="M50.864 54.336L70.64 14.4H75.392L55.664 54.336H50.864ZM84.3508 29.952L84.7348 24.432H84.9748L80.0308 27.792L78.2548 24.672L83.6308 22.08L83.5348 22.32L78.1588 19.728L79.9828 16.656L84.9748 20.016L84.7348 19.92L84.3508 14.4H87.9508L87.5188 20.496L87.1348 20.112L92.0788 16.752L93.8548 19.872L88.4308 22.512V21.984L93.8068 24.624L92.0308 27.696L87.0388 24.336L87.5668 24.432L87.9508 29.952H84.3508ZM95.0634 168V134.4H108.743C110.567 134.4 112.215 134.864 113.687 135.792C115.191 136.688 116.391 137.92 117.287 139.488C118.183 141.056 118.631 142.8 118.631 144.72C118.631 146.64 118.183 148.384 117.287 149.952C116.391 151.52 115.191 152.784 113.687 153.744C112.215 154.672 110.567 155.136 108.743 155.136H100.247V168H95.0634ZM100.247 150.144H108.647C109.511 150.144 110.295 149.904 110.999 149.424C111.703 148.912 112.263 148.256 112.679 147.456C113.127 146.624 113.351 145.712 113.351 144.72C113.351 143.728 113.127 142.832 112.679 142.032C112.263 141.232 111.703 140.592 110.999 140.112C110.295 139.632 109.511 139.392 108.647 139.392H100.247V150.144ZM135.097 168.48C132.633 168.48 130.425 167.92 128.473 166.8C126.553 165.648 125.033 164.096 123.913 162.144C122.793 160.16 122.233 157.904 122.233 155.376C122.233 152.848 122.793 150.608 123.913 148.656C125.033 146.672 126.553 145.12 128.473 144C130.425 142.848 132.633 142.272 135.097 142.272C137.529 142.272 139.705 142.848 141.625 144C143.577 145.12 145.113 146.672 146.233 148.656C147.353 150.608 147.913 152.848 147.913 155.376C147.913 157.904 147.353 160.16 146.233 162.144C145.113 164.096 143.577 165.648 141.625 166.8C139.705 167.92 137.529 168.48 135.097 168.48ZM135.097 163.968C136.601 163.968 137.945 163.6 139.129 162.864C140.313 162.096 141.241 161.072 141.913 159.792C142.585 158.48 142.905 157.008 142.873 155.376C142.905 153.712 142.585 152.24 141.913 150.96C141.241 149.648 140.313 148.624 139.129 147.888C137.945 147.152 136.601 146.784 135.097 146.784C133.593 146.784 132.233 147.168 131.017 147.936C129.833 148.672 128.905 149.696 128.233 151.008C127.561 152.288 127.241 153.744 127.273 155.376C127.241 157.008 127.561 158.48 128.233 159.792C128.905 161.072 129.833 162.096 131.017 162.864C132.233 163.6 133.593 163.968 135.097 163.968ZM153.3 168V142.8H158.292V150.72L157.812 148.8C158.164 147.584 158.756 146.48 159.588 145.488C160.452 144.496 161.428 143.712 162.516 143.136C163.636 142.56 164.788 142.272 165.972 142.272C166.516 142.272 167.028 142.32 167.508 142.416C168.02 142.512 168.42 142.624 168.708 142.752L167.412 148.128C167.028 147.968 166.596 147.84 166.116 147.744C165.668 147.616 165.22 147.552 164.772 147.552C163.908 147.552 163.076 147.728 162.276 148.08C161.508 148.4 160.82 148.864 160.212 149.472C159.636 150.048 159.172 150.736 158.82 151.536C158.468 152.304 158.292 153.152 158.292 154.08V168H153.3ZM176.717 168V136.368H181.661V168H176.717ZM171.485 147.6V142.8H187.517V147.6H171.485ZM193.536 168V139.968C193.536 138.528 193.856 137.248 194.496 136.128C195.136 135.008 196.016 134.128 197.136 133.488C198.256 132.848 199.552 132.528 201.024 132.528C202.048 132.528 203.008 132.72 203.904 133.104C204.8 133.488 205.52 134 206.064 134.64L204.384 138.432C203.968 138.048 203.504 137.744 202.992 137.52C202.512 137.264 202.048 137.136 201.6 137.136C200.928 137.136 200.352 137.248 199.872 137.472C199.424 137.664 199.088 137.984 198.864 138.432C198.64 138.848 198.528 139.36 198.528 139.968V168H196.032C195.616 168 195.2 168 194.784 168C194.368 168 193.952 168 193.536 168ZM189.504 147.792V143.232H204.48V147.792H189.504ZM220.034 168.48C217.57 168.48 215.362 167.92 213.41 166.8C211.49 165.648 209.97 164.096 208.85 162.144C207.73 160.16 207.17 157.904 207.17 155.376C207.17 152.848 207.73 150.608 208.85 148.656C209.97 146.672 211.49 145.12 213.41 144C215.362 142.848 217.57 142.272 220.034 142.272C222.466 142.272 224.642 142.848 226.562 144C228.514 145.12 230.05 146.672 231.17 148.656C232.29 150.608 232.85 152.848 232.85 155.376C232.85 157.904 232.29 160.16 231.17 162.144C230.05 164.096 228.514 165.648 226.562 166.8C224.642 167.92 222.466 168.48 220.034 168.48ZM220.034 163.968C221.538 163.968 222.882 163.6 224.066 162.864C225.25 162.096 226.178 161.072 226.85 159.792C227.522 158.48 227.842 157.008 227.81 155.376C227.842 153.712 227.522 152.24 226.85 150.96C226.178 149.648 225.25 148.624 224.066 147.888C222.882 147.152 221.538 146.784 220.034 146.784C218.53 146.784 217.17 147.168 215.954 147.936C214.77 148.672 213.842 149.696 213.17 151.008C212.498 152.288 212.178 153.744 212.21 155.376C212.178 157.008 212.498 158.48 213.17 159.792C213.842 161.072 214.77 162.096 215.954 162.864C217.17 163.6 218.53 163.968 220.034 163.968ZM238.333 168V132.48H243.277V168H238.333ZM251.1 168V142.8H256.044V168H251.1ZM253.5 137.232C252.444 137.232 251.628 136.96 251.052 136.416C250.476 135.872 250.188 135.104 250.188 134.112C250.188 133.184 250.476 132.432 251.052 131.856C251.66 131.28 252.476 130.992 253.5 130.992C254.556 130.992 255.372 131.264 255.948 131.808C256.524 132.352 256.812 133.12 256.812 134.112C256.812 135.04 256.508 135.792 255.9 136.368C255.324 136.944 254.524 137.232 253.5 137.232ZM274.972 168.48C272.508 168.48 270.3 167.92 268.348 166.8C266.428 165.648 264.908 164.096 263.788 162.144C262.668 160.16 262.108 157.904 262.108 155.376C262.108 152.848 262.668 150.608 263.788 148.656C264.908 146.672 266.428 145.12 268.348 144C270.3 142.848 272.508 142.272 274.972 142.272C277.404 142.272 279.58 142.848 281.5 144C283.452 145.12 284.988 146.672 286.108 148.656C287.228 150.608 287.788 152.848 287.788 155.376C287.788 157.904 287.228 160.16 286.108 162.144C284.988 164.096 283.452 165.648 281.5 166.8C279.58 167.92 277.404 168.48 274.972 168.48ZM274.972 163.968C276.476 163.968 277.82 163.6 279.004 162.864C280.188 162.096 281.116 161.072 281.788 159.792C282.46 158.48 282.78 157.008 282.748 155.376C282.78 153.712 282.46 152.24 281.788 150.96C281.116 149.648 280.188 148.624 279.004 147.888C277.82 147.152 276.476 146.784 274.972 146.784C273.468 146.784 272.108 147.168 270.892 147.936C269.708 148.672 268.78 149.696 268.108 151.008C267.436 152.288 267.116 153.744 267.148 155.376C267.116 157.008 267.436 158.48 268.108 159.792C268.78 161.072 269.708 162.096 270.892 162.864C272.108 163.6 273.468 163.968 274.972 163.968ZM57.632 209.952L58.016 204.432H58.256L53.312 207.792L51.536 204.672L56.912 202.08L56.816 202.32L51.44 199.728L53.264 196.656L58.256 200.016L58.016 199.92L57.632 194.4H61.232L60.8 200.496L60.416 200.112L65.36 196.752L67.136 199.872L61.712 202.512V201.984L67.088 204.624L65.312 207.696L60.32 204.336L60.848 204.432L61.232 209.952H57.632ZM69.4265 234.336L89.2025 194.4H93.9545L74.2265 234.336H69.4265Z" fill="#F5F5F5"/>
<path d="M104.087 108V91.248L104.423 93.6L90.8394 74.4H97.0794L107.447 89.28L106.247 89.136L115.607 74.4H121.559L108.551 94.128L109.271 90.864V108H104.087ZM132.939 119.04C131.147 119.04 129.355 118.752 127.563 118.176C125.803 117.632 124.379 116.912 123.291 116.016L125.115 112.176C125.755 112.656 126.507 113.072 127.371 113.424C128.235 113.808 129.147 114.096 130.107 114.288C131.067 114.512 132.011 114.624 132.939 114.624C134.699 114.624 136.171 114.336 137.355 113.76C138.539 113.184 139.435 112.336 140.043 111.216C140.651 110.096 140.955 108.704 140.955 107.04V102.192L141.483 102.528C141.323 103.52 140.795 104.48 139.899 105.408C139.035 106.304 137.947 107.04 136.635 107.616C135.323 108.192 133.979 108.48 132.603 108.48C130.203 108.48 128.059 107.92 126.171 106.8C124.315 105.648 122.843 104.096 121.755 102.144C120.667 100.16 120.123 97.904 120.123 95.376C120.123 92.848 120.651 90.608 121.707 88.656C122.795 86.672 124.267 85.12 126.123 84C128.011 82.848 130.123 82.272 132.459 82.272C133.419 82.272 134.347 82.4 135.243 82.656C136.139 82.88 136.971 83.216 137.739 83.664C138.507 84.08 139.195 84.544 139.803 85.056C140.411 85.568 140.907 86.112 141.291 86.688C141.675 87.264 141.915 87.808 142.011 88.32L140.955 88.704V82.8H145.899V106.464C145.899 108.48 145.595 110.256 144.987 111.792C144.411 113.36 143.563 114.672 142.443 115.728C141.323 116.816 139.963 117.632 138.363 118.176C136.763 118.752 134.955 119.04 132.939 119.04ZM133.131 103.92C134.699 103.92 136.091 103.552 137.307 102.816C138.523 102.08 139.467 101.072 140.139 99.792C140.811 98.512 141.147 97.04 141.147 95.376C141.147 93.712 140.795 92.24 140.091 90.96C139.419 89.648 138.475 88.624 137.259 87.888C136.075 87.152 134.699 86.784 133.131 86.784C131.595 86.784 130.219 87.168 129.003 87.936C127.819 88.672 126.875 89.696 126.171 91.008C125.499 92.288 125.163 93.744 125.163 95.376C125.163 97.008 125.499 98.48 126.171 99.792C126.875 101.072 127.819 102.08 129.003 102.816C130.219 103.552 131.595 103.92 133.131 103.92ZM164.159 108.48C161.695 108.48 159.487 107.92 157.535 106.8C155.615 105.648 154.095 104.096 152.975 102.144C151.855 100.16 151.295 97.904 151.295 95.376C151.295 92.848 151.855 90.608 152.975 88.656C154.095 86.672 155.615 85.12 157.535 84C159.487 82.848 161.695 82.272 164.159 82.272C166.591 82.272 168.767 82.848 170.687 84C172.639 85.12 174.175 86.672 175.295 88.656C176.415 90.608 176.975 92.848 176.975 95.376C176.975 97.904 176.415 100.16 175.295 102.144C174.175 104.096 172.639 105.648 170.687 106.8C168.767 107.92 166.591 108.48 164.159 108.48ZM164.159 103.968C165.663 103.968 167.007 103.6 168.191 102.864C169.375 102.096 170.303 101.072 170.975 99.792C171.647 98.48 171.967 97.008 171.935 95.376C171.967 93.712 171.647 92.24 170.975 90.96C170.303 89.648 169.375 88.624 168.191 87.888C167.007 87.152 165.663 86.784 164.159 86.784C162.655 86.784 161.295 87.168 160.079 87.936C158.895 88.672 157.967 89.696 157.295 91.008C156.623 92.288 156.303 93.744 156.335 95.376C156.303 97.008 156.623 98.48 157.295 99.792C157.967 101.072 158.895 102.096 160.079 102.864C161.295 103.6 162.655 103.968 164.159 103.968ZM182.362 108V82.8H187.354V90.72L186.874 88.8C187.226 87.584 187.818 86.48 188.65 85.488C189.514 84.496 190.49 83.712 191.578 83.136C192.698 82.56 193.85 82.272 195.034 82.272C195.578 82.272 196.09 82.32 196.57 82.416C197.082 82.512 197.482 82.624 197.77 82.752L196.474 88.128C196.09 87.968 195.658 87.84 195.178 87.744C194.73 87.616 194.282 87.552 193.834 87.552C192.97 87.552 192.138 87.728 191.338 88.08C190.57 88.4 189.882 88.864 189.274 89.472C188.698 90.048 188.234 90.736 187.882 91.536C187.53 92.304 187.354 93.152 187.354 94.08V108H182.362ZM230.055 108.48C227.719 108.48 225.575 108.064 223.623 107.232C221.671 106.4 219.975 105.216 218.535 103.68C217.095 102.112 215.975 100.272 215.175 98.16C214.407 96.048 214.023 93.728 214.023 91.2C214.023 88.8 214.439 86.576 215.271 84.528C216.135 82.448 217.319 80.624 218.823 79.056C220.327 77.488 222.071 76.272 224.055 75.408C226.039 74.544 228.183 74.112 230.487 74.112C232.119 74.112 233.703 74.368 235.239 74.88C236.807 75.36 238.215 76.048 239.463 76.944C240.743 77.808 241.783 78.8 242.583 79.92L239.127 83.52C238.199 82.592 237.255 81.824 236.295 81.216C235.367 80.576 234.407 80.096 233.415 79.776C232.455 79.456 231.479 79.296 230.487 79.296C228.919 79.296 227.447 79.6 226.071 80.208C224.727 80.784 223.543 81.6 222.519 82.656C221.527 83.712 220.743 84.976 220.167 86.448C219.591 87.888 219.303 89.472 219.303 91.2C219.303 93.024 219.575 94.688 220.119 96.192C220.695 97.664 221.495 98.928 222.519 99.984C223.543 101.04 224.759 101.856 226.167 102.432C227.607 102.976 229.191 103.248 230.919 103.248C231.975 103.248 233.015 103.104 234.039 102.816C235.063 102.528 236.023 102.112 236.919 101.568C237.815 101.024 238.631 100.384 239.367 99.648L241.959 103.872C241.223 104.736 240.215 105.52 238.935 106.224C237.687 106.928 236.279 107.488 234.711 107.904C233.175 108.288 231.623 108.48 230.055 108.48ZM257.449 108.48C255.369 108.48 253.465 107.904 251.737 106.752C250.041 105.6 248.681 104.032 247.657 102.048C246.633 100.064 246.121 97.824 246.121 95.328C246.121 92.8 246.633 90.56 247.657 88.608C248.713 86.624 250.121 85.072 251.881 83.952C253.673 82.832 255.673 82.272 257.881 82.272C259.193 82.272 260.393 82.464 261.481 82.848C262.569 83.232 263.513 83.776 264.313 84.48C265.145 85.152 265.817 85.936 266.329 86.832C266.873 87.728 267.209 88.688 267.337 89.712L266.233 89.328V82.8H271.225V108H266.233V102L267.385 101.664C267.193 102.528 266.793 103.376 266.185 104.208C265.609 105.008 264.857 105.728 263.929 106.368C263.033 107.008 262.025 107.52 260.905 107.904C259.817 108.288 258.665 108.48 257.449 108.48ZM258.745 103.92C260.249 103.92 261.577 103.552 262.729 102.816C263.881 102.08 264.777 101.072 265.417 99.792C266.089 98.48 266.425 96.992 266.425 95.328C266.425 93.696 266.089 92.24 265.417 90.96C264.777 89.68 263.881 88.672 262.729 87.936C261.577 87.2 260.249 86.832 258.745 86.832C257.273 86.832 255.961 87.2 254.809 87.936C253.689 88.672 252.793 89.68 252.121 90.96C251.481 92.24 251.161 93.696 251.161 95.328C251.161 96.992 251.481 98.48 252.121 99.792C252.793 101.072 253.689 102.08 254.809 102.816C255.961 103.552 257.273 103.92 258.745 103.92ZM286.528 108.48C284.416 108.48 282.512 108.112 280.816 107.376C279.12 106.64 277.712 105.552 276.592 104.112L279.952 101.232C280.912 102.352 281.952 103.168 283.072 103.68C284.224 104.16 285.52 104.4 286.96 104.4C287.536 104.4 288.064 104.336 288.544 104.208C289.056 104.048 289.488 103.824 289.84 103.536C290.224 103.248 290.512 102.912 290.704 102.528C290.896 102.112 290.992 101.664 290.992 101.184C290.992 100.352 290.688 99.68 290.08 99.168C289.76 98.944 289.248 98.704 288.544 98.448C287.872 98.16 286.992 97.872 285.904 97.584C284.048 97.104 282.528 96.56 281.344 95.952C280.16 95.344 279.248 94.656 278.608 93.888C278.128 93.28 277.776 92.624 277.552 91.92C277.328 91.184 277.216 90.384 277.216 89.52C277.216 88.464 277.44 87.504 277.888 86.64C278.368 85.744 279.008 84.976 279.808 84.336C280.64 83.664 281.6 83.152 282.688 82.8C283.808 82.448 284.992 82.272 286.24 82.272C287.424 82.272 288.592 82.432 289.744 82.752C290.928 83.072 292.016 83.536 293.008 84.144C294 84.752 294.832 85.472 295.504 86.304L292.672 89.424C292.064 88.816 291.392 88.288 290.656 87.84C289.952 87.36 289.232 86.992 288.496 86.736C287.76 86.48 287.088 86.352 286.48 86.352C285.808 86.352 285.2 86.416 284.656 86.544C284.112 86.672 283.648 86.864 283.264 87.12C282.912 87.376 282.64 87.696 282.448 88.08C282.256 88.464 282.16 88.896 282.16 89.376C282.192 89.792 282.288 90.192 282.448 90.576C282.64 90.928 282.896 91.232 283.216 91.488C283.568 91.744 284.096 92.016 284.8 92.304C285.504 92.592 286.4 92.864 287.488 93.12C289.088 93.536 290.4 94 291.424 94.512C292.48 94.992 293.312 95.552 293.92 96.192C294.56 96.8 295.008 97.504 295.264 98.304C295.52 99.104 295.648 100 295.648 100.992C295.648 102.432 295.232 103.728 294.4 104.88C293.6 106 292.512 106.88 291.136 107.52C289.76 108.16 288.224 108.48 286.528 108.48ZM304.217 108V76.368H309.161V108H304.217ZM298.985 87.6V82.8H315.017V87.6H298.985ZM319.519 108V82.8H324.511V90.72L324.031 88.8C324.383 87.584 324.975 86.48 325.807 85.488C326.671 84.496 327.647 83.712 328.734 83.136C329.855 82.56 331.007 82.272 332.191 82.272C332.735 82.272 333.247 82.32 333.727 82.416C334.239 82.512 334.639 82.624 334.927 82.752L333.631 88.128C333.247 87.968 332.815 87.84 332.335 87.744C331.887 87.616 331.439 87.552 330.991 87.552C330.127 87.552 329.295 87.728 328.495 88.08C327.727 88.4 327.039 88.864 326.431 89.472C325.855 90.048 325.391 90.736 325.039 91.536C324.687 92.304 324.511 93.152 324.511 94.08V108H319.519ZM349.128 108.48C346.664 108.48 344.456 107.92 342.504 106.8C340.584 105.648 339.064 104.096 337.944 102.144C336.824 100.16 336.264 97.904 336.264 95.376C336.264 92.848 336.824 90.608 337.944 88.656C339.064 86.672 340.584 85.12 342.504 84C344.456 82.848 346.664 82.272 349.128 82.272C351.56 82.272 353.736 82.848 355.656 84C357.608 85.12 359.144 86.672 360.264 88.656C361.384 90.608 361.944 92.848 361.944 95.376C361.944 97.904 361.384 100.16 360.264 102.144C359.144 104.096 357.608 105.648 355.656 106.8C353.736 107.92 351.56 108.48 349.128 108.48ZM349.128 103.968C350.632 103.968 351.976 103.6 353.16 102.864C354.344 102.096 355.272 101.072 355.944 99.792C356.616 98.48 356.936 97.008 356.904 95.376C356.936 93.712 356.616 92.24 355.944 90.96C355.272 89.648 354.344 88.624 353.16 87.888C351.976 87.152 350.632 86.784 349.128 86.784C347.624 86.784 346.264 87.168 345.048 87.936C343.864 88.672 342.936 89.696 342.264 91.008C341.592 92.288 341.272 93.744 341.304 95.376C341.272 97.008 341.592 98.48 342.264 99.792C342.936 101.072 343.864 102.096 345.048 102.864C346.264 103.6 347.624 103.968 349.128 103.968ZM382.032 108V74.4H387.216V108H382.032ZM384.336 93.696V88.704H401.664V93.696H384.336ZM384.336 79.392V74.4H403.824V79.392H384.336ZM420.716 108.48C418.124 108.48 415.82 107.936 413.804 106.848C411.82 105.728 410.252 104.208 409.1 102.288C407.98 100.368 407.42 98.16 407.42 95.664C407.42 93.68 407.74 91.872 408.38 90.24C409.02 88.608 409.9 87.2 411.02 86.016C412.172 84.8 413.532 83.872 415.1 83.232C416.7 82.56 418.428 82.224 420.284 82.224C421.916 82.224 423.436 82.544 424.844 83.184C426.252 83.792 427.468 84.64 428.492 85.728C429.548 86.816 430.348 88.112 430.892 89.616C431.468 91.088 431.74 92.704 431.708 94.464L431.66 96.576H411.068L409.964 92.64H427.388L426.668 93.456V92.304C426.572 91.248 426.22 90.304 425.612 89.472C425.004 88.64 424.236 87.984 423.308 87.504C422.38 87.024 421.372 86.784 420.284 86.784C418.556 86.784 417.1 87.12 415.916 87.792C414.732 88.432 413.836 89.392 413.228 90.672C412.62 91.92 412.316 93.472 412.316 95.328C412.316 97.088 412.684 98.624 413.42 99.936C414.156 101.216 415.196 102.208 416.54 102.912C417.884 103.616 419.436 103.968 421.196 103.968C422.444 103.968 423.596 103.76 424.652 103.344C425.74 102.928 426.908 102.176 428.156 101.088L430.652 104.592C429.884 105.36 428.94 106.032 427.82 106.608C426.732 107.184 425.564 107.648 424.316 108C423.1 108.32 421.9 108.48 420.716 108.48ZM437.081 108V82.8H442.073V90.72L441.593 88.8C441.945 87.584 442.537 86.48 443.369 85.488C444.233 84.496 445.209 83.712 446.297 83.136C447.417 82.56 448.569 82.272 449.753 82.272C450.297 82.272 450.809 82.32 451.289 82.416C451.801 82.512 452.201 82.624 452.489 82.752L451.193 88.128C450.809 87.968 450.377 87.84 449.897 87.744C449.449 87.616 449.001 87.552 448.553 87.552C447.689 87.552 446.857 87.728 446.057 88.08C445.289 88.4 444.601 88.864 443.993 89.472C443.417 90.048 442.953 90.736 442.601 91.536C442.249 92.304 442.073 93.152 442.073 94.08V108H437.081ZM456.44 108V82.8H461.432V90.72L460.952 88.8C461.304 87.584 461.896 86.48 462.728 85.488C463.592 84.496 464.568 83.712 465.656 83.136C466.776 82.56 467.928 82.272 469.112 82.272C469.656 82.272 470.168 82.32 470.648 82.416C471.16 82.512 471.56 82.624 471.848 82.752L470.552 88.128C470.168 87.968 469.736 87.84 469.256 87.744C468.808 87.616 468.36 87.552 467.912 87.552C467.048 87.552 466.216 87.728 465.416 88.08C464.648 88.4 463.96 88.864 463.352 89.472C462.776 90.048 462.312 90.736 461.96 91.536C461.608 92.304 461.432 93.152 461.432 94.08V108H456.44ZM486.482 108.48C483.89 108.48 481.586 107.936 479.57 106.848C477.586 105.728 476.018 104.208 474.866 102.288C473.746 100.368 473.186 98.16 473.186 95.664C473.186 93.68 473.506 91.872 474.146 90.24C474.786 88.608 475.666 87.2 476.786 86.016C477.938 84.8 479.298 83.872 480.866 83.232C482.466 82.56 484.194 82.224 486.05 82.224C487.682 82.224 489.202 82.544 490.61 83.184C492.018 83.792 493.234 84.64 494.258 85.728C495.314 86.816 496.114 88.112 496.658 89.616C497.234 91.088 497.506 92.704 497.474 94.464L497.426 96.576H476.834L475.73 92.64H493.154L492.434 93.456V92.304C492.338 91.248 491.986 90.304 491.378 89.472C490.77 88.64 490.002 87.984 489.074 87.504C488.146 87.024 487.138 86.784 486.05 86.784C484.322 86.784 482.866 87.12 481.682 87.792C480.498 88.432 479.602 89.392 478.994 90.672C478.386 91.92 478.082 93.472 478.082 95.328C478.082 97.088 478.45 98.624 479.186 99.936C479.922 101.216 480.962 102.208 482.306 102.912C483.65 103.616 485.202 103.968 486.962 103.968C488.21 103.968 489.362 103.76 490.418 103.344C491.506 102.928 492.674 102.176 493.922 101.088L496.418 104.592C495.65 105.36 494.706 106.032 493.586 106.608C492.498 107.184 491.33 107.648 490.082 108C488.866 108.32 487.666 108.48 486.482 108.48ZM503.663 108V82.8H508.607V108H503.663ZM506.063 77.232C505.007 77.232 504.191 76.96 503.615 76.416C503.039 75.872 502.751 75.104 502.751 74.112C502.751 73.184 503.039 72.432 503.615 71.856C504.223 71.28 505.039 70.992 506.063 70.992C507.119 70.992 507.935 71.264 508.511 71.808C509.087 72.352 509.375 73.12 509.375 74.112C509.375 75.04 509.071 75.792 508.463 76.368C507.887 76.944 507.087 77.232 506.063 77.232ZM516.206 108V82.8H521.198V90.72L520.718 88.8C521.07 87.584 521.662 86.48 522.494 85.488C523.358 84.496 524.334 83.712 525.422 83.136C526.542 82.56 527.694 82.272 528.878 82.272C529.422 82.272 529.934 82.32 530.414 82.416C530.926 82.512 531.326 82.624 531.614 82.752L530.318 88.128C529.934 87.968 529.502 87.84 529.022 87.744C528.574 87.616 528.126 87.552 527.678 87.552C526.814 87.552 525.982 87.728 525.182 88.08C524.414 88.4 523.726 88.864 523.118 89.472C522.542 90.048 522.078 90.736 521.726 91.536C521.374 92.304 521.198 93.152 521.198 94.08V108H516.206ZM544.183 108.48C542.103 108.48 540.199 107.904 538.471 106.752C536.775 105.6 535.415 104.032 534.391 102.048C533.367 100.064 532.855 97.824 532.855 95.328C532.855 92.8 533.367 90.56 534.391 88.608C535.447 86.624 536.855 85.072 538.615 83.952C540.407 82.832 542.407 82.272 544.615 82.272C545.927 82.272 547.127 82.464 548.215 82.848C549.303 83.232 550.247 83.776 551.047 84.48C551.879 85.152 552.551 85.936 553.063 86.832C553.607 87.728 553.943 88.688 554.071 89.712L552.967 89.328V82.8H557.959V108H552.967V102L554.119 101.664C553.927 102.528 553.527 103.376 552.919 104.208C552.343 105.008 551.591 105.728 550.663 106.368C549.767 107.008 548.759 107.52 547.639 107.904C546.551 108.288 545.399 108.48 544.183 108.48ZM545.479 103.92C546.983 103.92 548.311 103.552 549.463 102.816C550.615 102.08 551.511 101.072 552.151 99.792C552.823 98.48 553.159 96.992 553.159 95.328C553.159 93.696 552.823 92.24 552.151 90.96C551.511 89.68 550.615 88.672 549.463 87.936C548.311 87.2 546.983 86.832 545.479 86.832C544.007 86.832 542.695 87.2 541.543 87.936C540.423 88.672 539.527 89.68 538.855 90.96C538.215 92.24 537.895 93.696 537.895 95.328C537.895 96.992 538.215 98.48 538.855 99.792C539.527 101.072 540.423 102.08 541.543 102.816C542.695 103.552 544.007 103.92 545.479 103.92ZM564.19 85.2L562.366 82.992C563.614 82.416 564.638 81.76 565.438 81.024C566.238 80.288 566.638 79.648 566.638 79.104C566.638 78.688 566.462 78.32 566.11 78C565.758 77.648 565.438 77.36 565.15 77.136C564.446 76.56 563.966 76.08 563.71 75.696C563.486 75.312 563.374 74.912 563.374 74.496C563.374 73.728 563.646 73.12 564.19 72.672C564.734 72.192 565.438 71.952 566.302 71.952C567.198 71.952 567.998 72.192 568.702 72.672C569.438 73.12 570.014 73.744 570.43 74.544C570.846 75.344 571.054 76.288 571.054 77.376C571.054 78.208 570.878 79.024 570.526 79.824C570.174 80.624 569.678 81.376 569.038 82.08C568.43 82.784 567.71 83.408 566.878 83.952C566.046 84.496 565.15 84.912 564.19 85.2ZM584.84 108.48C582.728 108.48 580.824 108.112 579.128 107.376C577.432 106.64 576.024 105.552 574.904 104.112L578.264 101.232C579.224 102.352 580.264 103.168 581.384 103.68C582.536 104.16 583.832 104.4 585.272 104.4C585.848 104.4 586.376 104.336 586.856 104.208C587.368 104.048 587.8 103.824 588.152 103.536C588.536 103.248 588.824 102.912 589.016 102.528C589.208 102.112 589.304 101.664 589.304 101.184C589.304 100.352 589 99.68 588.392 99.168C588.072 98.944 587.56 98.704 586.856 98.448C586.184 98.16 585.304 97.872 584.216 97.584C582.36 97.104 580.84 96.56 579.656 95.952C578.472 95.344 577.56 94.656 576.92 93.888C576.44 93.28 576.088 92.624 575.864 91.92C575.64 91.184 575.528 90.384 575.528 89.52C575.528 88.464 575.752 87.504 576.2 86.64C576.68 85.744 577.32 84.976 578.12 84.336C578.952 83.664 579.912 83.152 581 82.8C582.12 82.448 583.304 82.272 584.552 82.272C585.736 82.272 586.904 82.432 588.056 82.752C589.24 83.072 590.328 83.536 591.32 84.144C592.312 84.752 593.144 85.472 593.816 86.304L590.984 89.424C590.376 88.816 589.704 88.288 588.968 87.84C588.264 87.36 587.544 86.992 586.808 86.736C586.072 86.48 585.4 86.352 584.792 86.352C584.12 86.352 583.512 86.416 582.968 86.544C582.424 86.672 581.96 86.864 581.576 87.12C581.224 87.376 580.952 87.696 580.76 88.08C580.568 88.464 580.472 88.896 580.472 89.376C580.504 89.792 580.6 90.192 580.76 90.576C580.952 90.928 581.208 91.232 581.528 91.488C581.88 91.744 582.408 92.016 583.112 92.304C583.816 92.592 584.712 92.864 585.8 93.12C587.4 93.536 588.712 94 589.736 94.512C590.792 94.992 591.624 95.552 592.232 96.192C592.872 96.8 593.32 97.504 593.576 98.304C593.832 99.104 593.96 100 593.96 100.992C593.96 102.432 593.544 103.728 592.712 104.88C591.912 106 590.824 106.88 589.448 107.52C588.072 108.16 586.536 108.48 584.84 108.48Z" fill="#72FF03"/>
<path d="M8.076 41.628V25.724L9.112 26.508L5.248 28.552L4.436 25.92L9.672 23.12H11.128V41.628H8.076ZM4.968 43V40.088H14.32V43H4.968Z" fill="#1BF4C0"/>
<path d="M3.604 100L2.68 97.704L8.672 90.956C8.98933 90.62 9.316 90.2373 9.652 89.808C10.0067 89.36 10.3427 88.9027 10.66 88.436C10.9773 87.9693 11.2293 87.512 11.416 87.064C11.6213 86.5973 11.724 86.1587 11.724 85.748C11.724 85.1507 11.6027 84.6467 11.36 84.236C11.136 83.8067 10.8 83.48 10.352 83.256C9.92267 83.032 9.4 82.92 8.784 82.92C8.24267 82.92 7.71067 83.0787 7.188 83.396C6.66533 83.7133 6.18933 84.1613 5.76 84.74C5.33067 85.3187 4.99467 85.9907 4.752 86.756L2.428 85.3C2.74533 84.2173 3.22133 83.2933 3.856 82.528C4.50933 81.744 5.284 81.1467 6.18 80.736C7.09467 80.3253 8.084 80.12 9.148 80.12C10.2493 80.12 11.2293 80.3533 12.088 80.82C12.9467 81.268 13.6187 81.9027 14.104 82.724C14.5893 83.5267 14.832 84.46 14.832 85.524C14.832 85.9533 14.7853 86.392 14.692 86.84C14.5987 87.288 14.4493 87.7547 14.244 88.24C14.0387 88.7067 13.7773 89.2013 13.46 89.724C13.1427 90.228 12.76 90.76 12.312 91.32C11.8827 91.88 11.388 92.468 10.828 93.084L6.376 97.928L5.816 97.088H15.448V100H3.604Z" fill="#1BF4C0"/>
<path d="M7.028 157.28C5.64667 157.28 4.44267 156.963 3.416 156.328C2.408 155.693 1.456 154.629 0.56 153.136L2.912 151.652C3.37867 152.343 3.836 152.912 4.284 153.36C4.75067 153.789 5.22667 154.107 5.712 154.312C6.19733 154.517 6.71067 154.62 7.252 154.62C7.90533 154.62 8.512 154.461 9.072 154.144C9.632 153.808 10.08 153.351 10.416 152.772C10.752 152.193 10.92 151.54 10.92 150.812C10.92 150.084 10.7893 149.468 10.528 148.964C10.2667 148.441 9.884 148.049 9.38 147.788C8.876 147.508 8.27867 147.368 7.588 147.368C7.27067 147.368 6.93467 147.405 6.58 147.48C6.244 147.536 5.88 147.629 5.488 147.76C5.096 147.872 4.66667 148.021 4.2 148.208L3.36 145.996L9.408 139.332L9.996 140.2H1.652V137.4H12.88L13.44 138.52L7.028 145.632L6.328 144.904C6.47733 144.829 6.72 144.764 7.056 144.708C7.41067 144.633 7.7 144.596 7.924 144.596C8.74533 144.596 9.51067 144.755 10.22 145.072C10.948 145.371 11.5733 145.8 12.096 146.36C12.6373 146.901 13.0573 147.545 13.356 148.292C13.6733 149.02 13.832 149.804 13.832 150.644C13.832 151.913 13.524 153.052 12.908 154.06C12.3107 155.049 11.4987 155.833 10.472 156.412C9.44533 156.991 8.29733 157.28 7.028 157.28Z" fill="#1BF4C0"/>
<path d="M9.856 214V198.208L10.556 198.376L4.116 206.244L4.004 205.908H16.184V208.68H2.128L0.84 206.16L10.444 194.4H12.768V214H9.856Z" fill="#1BF4C0"/>
</svg>
